<?xml version="1.0" encoding="UTF-8" standalone="no"?>
<!DOCTYPE svg PUBLIC "-//W3C//DTD SVG 20010904//EN"
              "http://www.w3.org/TR/2001/REC-SVG-20010904/DTD/svg10.dtd">

<svg xmlns="http://www.w3.org/2000/svg"
     width="9.13889in" height="6.77778in"
     viewBox="0 0 658 488">
  <path id="Auswahl"
        fill="none" stroke="black" stroke-width="1"
        d="M 107.00,1.00
           C 109.01,1.00 112.65,0.74 114.28,1.99
             115.68,3.07 117.03,7.24 117.70,9.00
             120.80,17.06 119.90,30.89 116.90,39.00
             116.90,39.00 113.00,49.00 113.00,49.00
             113.00,49.00 115.00,48.00 115.00,48.00
             115.00,48.00 110.00,53.00 110.00,53.00
             110.00,53.00 96.40,51.94 96.40,51.94
             96.40,51.94 92.17,42.18 92.17,42.18
             92.17,42.18 82.79,35.21 82.79,35.21
             82.79,35.21 80.00,25.00 80.00,25.00
             70.88,24.68 72.55,20.85 68.13,13.00
             65.34,8.05 63.42,6.80 62.00,1.00
             62.00,1.00 107.00,1.00 107.00,1.00 Z
           M 171.00,12.00
           C 171.00,12.00 170.00,13.00 170.00,13.00
             170.00,13.00 170.00,12.00 170.00,12.00
             170.00,12.00 171.00,12.00 171.00,12.00 Z
           M 182.00,18.00
           C 182.00,18.00 183.00,19.00 183.00,19.00
             183.00,19.00 182.00,21.00 182.00,21.00
             182.00,21.00 186.00,22.00 186.00,22.00
             186.00,22.00 185.00,28.00 185.00,28.00
             181.74,31.49 182.06,32.38 182.00,37.00
             182.00,37.00 176.00,35.00 176.00,35.00
             176.00,35.00 180.00,31.00 180.00,31.00
             180.00,31.00 179.00,29.00 179.00,29.00
             179.00,29.00 180.00,28.00 180.00,28.00
             180.00,28.00 177.00,26.00 177.00,26.00
             177.00,26.00 181.00,23.00 181.00,23.00
             176.04,20.31 174.83,18.83 172.00,14.00
             174.62,15.52 179.35,20.39 182.00,18.00 Z
           M 166.00,17.00
           C 166.00,17.00 167.00,22.00 167.00,22.00
             157.67,18.82 152.64,24.21 146.00,22.00
             146.00,22.00 150.00,17.00 150.00,17.00
             157.33,18.31 158.67,18.31 166.00,17.00 Z
           M 186.00,24.00
           C 186.00,24.00 185.00,25.00 185.00,25.00
             185.00,25.00 185.00,24.00 185.00,24.00
             185.00,24.00 186.00,24.00 186.00,24.00 Z
           M 173.00,27.00
           C 173.00,27.00 172.00,28.00 172.00,28.00
             172.00,28.00 172.00,27.00 172.00,27.00
             172.00,27.00 173.00,27.00 173.00,27.00 Z
           M 168.00,41.00
           C 168.00,41.00 165.00,38.00 165.00,38.00
             165.00,38.00 168.00,41.00 168.00,41.00 Z
           M 203.39,53.18
           C 204.41,55.81 202.88,58.34 204.00,64.00
             204.00,64.00 199.00,59.00 199.00,59.00
             207.17,54.02 195.47,47.82 192.09,47.66
             190.33,47.57 189.45,48.24 188.00,49.00
             188.00,49.00 187.00,44.00 187.00,44.00
             187.00,44.00 190.00,45.00 190.00,45.00
             190.00,45.00 190.00,43.00 190.00,43.00
             193.45,44.69 202.01,49.65 203.39,53.18 Z
           M 170.00,44.00
           C 170.00,44.00 169.00,45.00 169.00,45.00
             169.00,45.00 169.00,44.00 169.00,44.00
             169.00,44.00 170.00,44.00 170.00,44.00 Z
           M 169.00,46.00
           C 169.00,46.00 168.00,47.00 168.00,47.00
             168.00,47.00 168.00,46.00 168.00,46.00
             168.00,46.00 169.00,46.00 169.00,46.00 Z
           M 163.00,51.00
           C 163.00,51.00 168.70,62.96 168.70,62.96
             168.70,62.96 170.84,69.17 170.84,69.17
             173.02,74.95 176.23,78.69 170.84,84.00
             165.26,78.54 166.05,76.13 161.39,71.21
             157.55,67.16 154.79,67.47 153.00,62.00
             153.00,62.00 157.00,62.00 157.00,62.00
             157.00,62.00 158.00,51.00 158.00,51.00
             158.00,51.00 163.00,51.00 163.00,51.00 Z
           M 179.00,53.00
           C 177.60,56.37 176.44,55.88 173.00,56.00
             174.85,53.16 175.76,53.40 179.00,53.00 Z
           M 107.00,57.00
           C 107.00,57.00 106.00,58.00 106.00,58.00
             106.00,58.00 106.00,57.00 106.00,57.00
             106.00,57.00 107.00,57.00 107.00,57.00 Z
           M 105.00,58.00
           C 105.00,58.00 104.00,59.00 104.00,59.00
             104.00,59.00 104.00,58.00 104.00,58.00
             104.00,58.00 105.00,58.00 105.00,58.00 Z
           M 103.00,59.00
           C 103.00,59.00 102.00,60.00 102.00,60.00
             102.00,60.00 102.00,59.00 102.00,59.00
             102.00,59.00 103.00,59.00 103.00,59.00 Z
           M 91.00,63.00
           C 91.00,63.00 85.00,63.00 85.00,63.00
             88.06,61.78 88.11,61.33 91.00,63.00 Z
           M 222.00,75.00
           C 222.00,75.00 217.00,75.00 217.00,75.00
             217.00,75.00 219.00,71.00 219.00,71.00
             219.00,71.00 212.00,62.00 212.00,62.00
             216.94,64.56 220.27,69.80 222.00,75.00 Z
           M 189.00,63.00
           C 189.00,63.00 188.00,64.00 188.00,64.00
             188.00,64.00 188.00,63.00 188.00,63.00
             188.00,63.00 189.00,63.00 189.00,63.00 Z
           M 194.00,69.00
           C 194.00,69.00 193.00,70.00 193.00,70.00
             193.00,70.00 193.00,69.00 193.00,69.00
             193.00,69.00 194.00,69.00 194.00,69.00 Z
           M 164.00,72.00
           C 164.00,72.00 165.00,73.00 165.00,73.00
             165.00,73.00 165.00,72.00 165.00,72.00
             165.00,72.00 164.00,72.00 164.00,72.00 Z
           M 237.00,79.00
           C 237.00,79.00 239.00,74.00 239.00,74.00
             239.89,76.99 239.53,77.32 237.00,79.00 Z
           M 217.00,91.00
           C 210.99,89.59 206.24,88.21 204.00,82.00
             204.00,82.00 217.00,91.00 217.00,91.00 Z
           M 233.00,83.00
           C 233.00,83.00 229.00,85.00 229.00,85.00
             229.00,85.00 233.00,83.00 233.00,83.00 Z
           M 226.00,94.00
           C 226.00,94.00 220.00,84.00 220.00,84.00
             224.15,87.35 224.79,88.90 226.00,94.00 Z
           M 130.00,86.00
           C 130.00,86.00 129.00,87.00 129.00,87.00
             129.00,87.00 129.00,86.00 129.00,86.00
             129.00,86.00 130.00,86.00 130.00,86.00 Z
           M 112.00,96.00
           C 112.00,96.00 108.00,95.00 108.00,95.00
             110.09,98.72 111.25,99.14 115.00,101.00
             115.00,101.00 114.00,96.00 114.00,96.00
             114.00,96.00 119.00,97.00 119.00,97.00
             119.00,97.00 117.00,99.00 117.00,99.00
             117.00,99.00 125.00,100.00 125.00,100.00
             125.00,100.00 124.00,103.00 124.00,103.00
             124.00,103.00 126.00,101.00 126.00,101.00
             126.00,101.00 135.00,107.00 135.00,107.00
             135.00,107.00 131.00,107.00 131.00,107.00
             136.00,111.55 140.91,111.59 147.42,112.27
             151.06,112.64 154.95,113.07 156.00,117.00
             156.00,117.00 162.00,118.00 162.00,118.00
             162.00,118.00 147.00,108.00 147.00,108.00
             151.44,107.54 154.18,107.24 157.00,111.00
             157.00,111.00 161.00,110.00 161.00,110.00
             163.61,114.38 169.90,119.65 174.17,122.56
             178.37,125.42 180.25,124.59 182.00,130.00
             182.00,130.00 204.00,138.64 204.00,138.64
             204.00,138.64 216.00,141.00 216.00,141.00
             216.00,141.00 214.00,145.00 214.00,145.00
             214.00,145.00 220.42,147.77 220.42,147.77
             220.42,147.77 229.00,148.53 229.00,148.53
             229.00,148.53 239.00,154.07 239.00,154.07
             239.00,154.07 245.66,159.10 245.66,159.10
             245.66,159.10 242.89,162.40 242.89,162.40
             242.89,162.40 234.00,163.49 234.00,163.49
             234.00,163.49 228.00,165.29 228.00,165.29
             228.00,165.29 217.00,166.81 217.00,166.81
             217.00,166.81 200.73,163.98 200.73,163.98
             200.73,163.98 195.00,164.84 195.00,164.84
             195.00,164.84 169.00,168.00 169.00,168.00
             171.11,158.10 176.00,161.26 183.00,153.00
             183.00,153.00 174.96,150.10 174.96,150.10
             166.76,148.56 162.04,150.40 155.15,144.25
             149.19,138.93 155.53,137.98 146.00,130.00
             146.00,130.00 148.00,129.00 148.00,129.00
             148.00,129.00 137.00,130.73 137.00,130.73
             137.00,130.73 123.00,128.00 123.00,128.00
             123.00,128.00 123.00,126.00 123.00,126.00
             114.44,126.47 114.11,121.76 108.00,119.59
             102.96,117.81 100.29,120.78 95.00,117.00
             95.00,117.00 92.00,120.00 92.00,120.00
             92.00,120.00 93.00,117.00 93.00,117.00
             93.00,117.00 86.00,117.00 86.00,117.00
             86.00,117.00 86.00,120.00 86.00,120.00
             80.40,114.70 77.83,117.83 74.00,111.00
             74.00,111.00 83.00,109.00 83.00,109.00
             81.28,107.98 79.97,107.07 78.00,106.51
             74.20,105.42 63.45,105.58 60.00,107.43
             60.00,107.43 49.00,115.42 49.00,115.42
             44.62,117.65 41.28,116.19 38.21,117.57
             35.69,118.71 35.18,120.76 33.37,122.03
             33.37,122.03 22.00,126.00 22.00,126.00
             22.00,126.00 23.00,123.00 23.00,123.00
             18.77,124.36 17.01,125.47 13.00,123.00
             13.00,123.00 26.00,119.00 26.00,119.00
             24.53,116.01 24.06,115.80 26.00,113.00
             26.00,113.00 24.00,112.00 24.00,112.00
             24.00,112.00 25.00,111.00 25.00,111.00
             25.00,111.00 27.00,112.00 27.00,112.00
             33.85,99.40 55.37,98.84 68.00,96.00
             68.00,96.00 69.00,99.00 69.00,99.00
             69.00,99.00 71.00,99.00 71.00,99.00
             71.00,99.00 71.00,97.00 71.00,97.00
             71.00,97.00 72.00,97.00 72.00,97.00
             72.00,97.00 70.00,95.11 70.00,95.11
             70.00,95.11 84.00,95.11 84.00,95.11
             84.00,95.11 94.57,96.90 94.57,96.90
             97.63,96.92 99.17,95.77 100.00,93.00
             100.00,93.00 112.00,96.00 112.00,96.00 Z
           M 231.00,102.00
           C 231.00,102.00 225.00,96.00 225.00,96.00
             225.00,96.00 226.00,95.00 226.00,95.00
             229.11,96.88 231.71,97.99 231.00,102.00 Z
           M 257.00,98.00
           C 257.00,98.00 253.00,96.00 253.00,96.00
             253.00,96.00 257.00,98.00 257.00,98.00 Z
           M 252.00,104.00
           C 254.11,112.17 249.56,113.92 243.00,117.00
             243.00,117.00 251.00,109.00 251.00,109.00
             251.00,109.00 243.00,106.00 243.00,106.00
             243.00,106.00 242.00,102.00 242.00,102.00
             242.00,102.00 252.00,104.00 252.00,104.00 Z
           M 138.00,106.00
           C 138.00,106.00 137.00,107.00 137.00,107.00
             137.00,107.00 137.00,106.00 137.00,106.00
             137.00,106.00 138.00,106.00 138.00,106.00 Z
           M 66.00,107.00
           C 66.00,107.00 65.00,108.00 65.00,108.00
             65.00,108.00 65.00,107.00 65.00,107.00
             65.00,107.00 66.00,107.00 66.00,107.00 Z
           M 140.00,108.00
           C 140.00,108.00 139.00,109.00 139.00,109.00
             139.00,109.00 139.00,108.00 139.00,108.00
             139.00,108.00 140.00,108.00 140.00,108.00 Z
           M 277.00,114.00
           C 277.00,114.00 267.00,113.00 267.00,113.00
             270.24,108.98 273.54,111.33 277.00,114.00 Z
           M 211.00,112.00
           C 211.00,112.00 210.00,113.00 210.00,113.00
             210.00,113.00 210.00,112.00 210.00,112.00
             210.00,112.00 211.00,112.00 211.00,112.00 Z
           M 213.00,116.00
           C 213.00,116.00 212.00,117.00 212.00,117.00
             212.00,117.00 212.00,116.00 212.00,116.00
             212.00,116.00 213.00,116.00 213.00,116.00 Z
           M 300.00,126.00
           C 300.00,126.00 305.00,126.00 305.00,126.00
             305.00,126.00 305.00,128.00 305.00,128.00
             298.98,128.64 296.15,126.33 291.00,124.00
             293.88,119.83 297.64,122.83 300.00,126.00 Z
           M 64.00,127.00
           C 64.00,127.00 67.00,127.00 67.00,127.00
             67.00,127.00 66.00,130.00 66.00,130.00
             58.95,132.97 56.34,134.86 51.00,128.00
             51.00,128.00 55.00,130.00 55.00,130.00
             52.35,121.02 61.14,119.30 64.00,127.00 Z
           M 290.00,125.00
           C 286.96,125.33 286.31,125.93 285.00,123.00
             285.00,123.00 290.00,125.00 290.00,125.00 Z
           M 81.00,128.00
           C 81.00,128.00 74.00,129.00 74.00,129.00
             74.00,129.00 80.00,127.00 80.00,127.00
             80.00,127.00 81.00,128.00 81.00,128.00 Z
           M 91.00,128.00
           C 91.00,128.00 86.00,129.00 86.00,129.00
             86.00,129.00 91.00,128.00 91.00,128.00 Z
           M 68.00,129.00
           C 68.00,129.00 67.00,130.00 67.00,130.00
             67.00,130.00 67.00,129.00 67.00,129.00
             67.00,129.00 68.00,129.00 68.00,129.00 Z
           M 71.00,129.00
           C 71.00,129.00 70.00,130.00 70.00,130.00
             70.00,130.00 70.00,129.00 70.00,129.00
             70.00,129.00 71.00,129.00 71.00,129.00 Z
           M 273.00,130.00
           C 273.00,130.00 269.00,133.00 269.00,133.00
             269.00,133.00 273.00,130.00 273.00,130.00 Z
           M 268.00,142.86
           C 265.56,143.46 257.79,145.99 256.74,142.86
             255.93,140.15 260.53,135.54 264.00,139.00
             264.00,139.00 270.00,135.00 270.00,135.00
             270.00,135.00 268.00,142.86 268.00,142.86 Z
           M 148.00,139.00
           C 148.00,139.00 147.00,140.00 147.00,140.00
             147.00,140.00 147.00,139.00 147.00,139.00
             147.00,139.00 148.00,139.00 148.00,139.00 Z
           M 145.00,147.00
           C 141.28,145.80 140.06,145.41 138.00,142.00
             138.00,142.00 145.00,147.00 145.00,147.00 Z
           M 147.00,148.00
           C 147.00,148.00 146.00,149.00 146.00,149.00
             146.00,149.00 146.00,148.00 146.00,148.00
             146.00,148.00 147.00,148.00 147.00,148.00 Z
           M 156.00,153.00
           C 156.00,153.00 153.00,150.00 153.00,150.00
             153.00,150.00 156.00,153.00 156.00,153.00 Z
           M 279.00,163.00
           C 279.00,163.00 277.00,165.00 277.00,165.00
             280.80,165.60 282.76,165.68 285.00,169.00
             285.00,169.00 297.00,170.00 297.00,170.00
             300.61,163.60 304.02,167.37 310.00,166.45
             310.00,166.45 315.00,165.45 315.00,165.45
             318.23,165.33 326.44,169.02 330.00,170.04
             333.02,170.90 334.80,170.08 336.79,171.11
             339.35,172.43 340.21,175.67 342.39,177.40
             345.54,179.91 350.33,178.48 354.00,178.00
             352.21,183.09 349.59,181.81 345.00,181.00
             352.51,186.63 357.59,181.09 367.94,189.89
             372.72,193.95 372.78,198.84 366.00,200.00
             366.00,200.00 367.00,205.00 367.00,205.00
             360.71,203.57 363.14,202.23 359.59,200.00
             357.51,198.70 351.49,198.14 349.00,198.47
             349.00,198.47 338.09,198.47 338.09,198.47
             334.67,199.55 333.41,203.79 327.05,202.85
             323.67,202.35 323.24,200.81 322.00,198.00
             309.71,207.29 314.39,203.11 306.00,216.00
             306.00,216.00 304.00,215.00 304.00,215.00
             304.00,215.00 302.00,217.00 302.00,217.00
             302.00,217.00 302.00,216.00 302.00,216.00
             302.00,216.00 304.00,214.00 304.00,214.00
             304.00,214.00 299.00,213.00 299.00,213.00
             299.44,207.72 295.99,204.73 291.00,203.43
             284.68,201.78 280.20,204.76 275.00,204.82
             265.07,204.93 265.49,200.46 254.00,204.00
             254.00,204.00 255.00,207.00 255.00,207.00
             253.35,206.52 241.49,200.44 240.64,199.44
             238.62,197.10 239.73,193.54 243.13,192.61
             247.01,191.55 250.68,194.25 255.00,194.67
             255.00,194.67 261.00,194.67 261.00,194.67
             261.00,194.67 274.00,196.70 274.00,196.70
             277.60,196.65 278.18,195.21 285.00,195.00
             285.00,195.00 275.00,184.00 275.00,184.00
             275.00,184.00 277.00,184.00 277.00,184.00
             275.93,181.19 275.55,176.66 273.65,174.97
             269.20,171.02 261.28,174.16 262.20,169.22
             262.83,165.87 267.58,167.35 275.00,163.00
             275.00,163.00 272.00,162.00 272.00,162.00
             272.00,162.00 279.00,163.00 279.00,163.00 Z
           M 126.00,170.00
           C 126.00,170.00 122.00,170.00 122.00,170.00
             122.00,170.00 126.00,170.00 126.00,170.00 Z
           M 97.00,179.00
           C 97.00,179.00 90.00,180.00 90.00,180.00
             90.00,180.00 89.00,177.00 89.00,177.00
             89.00,177.00 97.00,179.00 97.00,179.00 Z
           M 276.00,192.00
           C 270.74,191.26 267.78,190.98 264.00,187.00
             269.79,185.64 272.92,186.91 276.00,192.00 Z
           M 460.00,193.00
           C 460.00,193.00 456.00,191.00 456.00,191.00
             456.00,191.00 460.00,193.00 460.00,193.00 Z
           M 169.00,209.99
           C 169.00,209.99 161.72,204.43 161.72,204.43
             161.72,204.43 157.33,202.46 157.33,202.46
             157.33,202.46 156.17,199.37 156.17,199.37
             156.17,199.37 167.00,195.49 167.00,195.49
             167.00,195.49 177.00,196.41 177.00,196.41
             177.00,196.41 192.09,201.00 192.09,201.00
             192.09,201.00 198.82,203.72 198.82,203.72
             198.82,203.72 203.00,209.23 203.00,209.23
             193.09,211.83 195.10,209.30 190.09,209.23
             186.11,209.61 187.20,211.21 182.00,210.00
             182.00,210.00 181.00,214.00 181.00,214.00
             181.00,214.00 169.00,209.99 169.00,209.99 Z
           M 400.00,196.22
           C 400.00,196.22 431.00,198.00 431.00,198.00
             430.39,205.72 423.06,208.91 416.00,208.92
             416.00,208.92 408.00,208.18 408.00,208.18
             408.00,208.18 396.00,209.00 396.00,209.00
             396.52,203.71 396.52,203.73 394.00,199.00
             394.00,199.00 400.00,196.22 400.00,196.22 Z
           M 453.00,197.00
           C 453.00,197.00 448.00,201.00 448.00,201.00
             448.00,201.00 450.00,199.00 450.00,199.00
             450.00,199.00 448.00,197.00 448.00,197.00
             448.00,197.00 453.00,197.00 453.00,197.00 Z
           M 313.00,201.00
           C 313.00,201.00 314.00,202.00 314.00,202.00
             314.00,202.00 314.00,201.00 314.00,201.00
             314.00,201.00 313.00,201.00 313.00,201.00 Z
           M 487.00,202.00
           C 487.00,202.00 483.00,203.00 483.00,203.00
             483.00,203.00 486.00,201.00 486.00,201.00
             486.00,201.00 487.00,202.00 487.00,202.00 Z
           M 438.00,205.00
           C 438.00,205.00 431.00,204.00 431.00,204.00
             431.00,204.00 438.00,205.00 438.00,205.00 Z
           M 484.00,207.00
           C 484.00,207.00 486.00,204.00 486.00,204.00
             486.52,206.33 486.12,206.17 484.00,207.00 Z
           M 491.00,209.00
           C 491.00,209.00 490.00,210.00 490.00,210.00
             490.00,210.00 490.00,209.00 490.00,209.00
             490.00,209.00 491.00,209.00 491.00,209.00 Z
           M 453.00,213.00
           C 453.00,213.00 446.00,214.00 446.00,214.00
             448.26,211.48 450.01,211.82 453.00,213.00 Z
           M 513.00,213.00
           C 513.00,213.00 515.00,217.00 515.00,217.00
             515.00,217.00 511.00,217.00 511.00,217.00
             511.00,217.00 511.00,213.00 511.00,213.00
             511.00,213.00 513.00,213.00 513.00,213.00 Z
           M 488.00,218.00
           C 488.00,218.00 487.00,219.00 487.00,219.00
             487.00,219.00 487.00,218.00 487.00,218.00
             487.00,218.00 488.00,218.00 488.00,218.00 Z
           M 497.00,227.00
           C 497.00,227.00 495.00,224.00 495.00,224.00
             495.00,224.00 490.00,220.00 490.00,220.00
             494.29,221.33 495.72,222.68 497.00,227.00 Z
           M 516.00,226.00
           C 516.00,226.00 516.00,228.00 516.00,228.00
             516.00,228.00 511.00,229.00 511.00,229.00
             511.00,229.00 511.00,225.00 511.00,225.00
             511.00,225.00 516.00,226.00 516.00,226.00 Z
           M 505.00,236.00
           C 505.00,236.00 504.00,232.00 504.00,232.00
             504.00,232.00 505.00,236.00 505.00,236.00 Z
           M 527.00,245.00
           C 527.00,245.00 518.00,246.00 518.00,246.00
             517.71,249.59 517.92,249.81 515.00,252.00
             515.00,252.00 512.00,243.00 512.00,243.00
             512.00,243.00 518.00,243.00 518.00,243.00
             518.00,243.00 520.00,239.00 520.00,239.00
             520.00,239.00 527.00,245.00 527.00,245.00 Z
           M 12.00,250.39
           C 12.00,250.39 19.00,252.38 19.00,252.38
             19.00,252.38 29.00,254.95 29.00,254.95
             29.00,254.95 45.83,265.63 45.83,265.63
             45.83,265.63 53.00,271.00 53.00,271.00
             52.26,273.32 50.43,276.97 50.31,279.00
             50.16,281.75 51.79,283.79 50.98,287.00
             50.48,288.97 46.33,295.16 44.90,301.42
             42.92,309.25 44.82,313.86 44.90,321.00
             45.22,331.20 43.02,328.37 41.69,335.00
             40.95,338.92 42.19,341.30 41.69,343.91
             41.04,346.89 38.70,348.31 38.10,351.04
             37.52,353.64 39.26,357.35 40.00,360.00
             40.00,360.00 42.00,359.00 42.00,359.00
             42.00,359.00 45.54,368.00 45.54,368.00
             45.54,368.00 50.00,377.00 50.00,377.00
             57.28,377.96 59.60,388.35 68.00,390.00
             69.18,392.89 73.29,393.74 76.00,395.00
             76.00,395.00 72.00,399.00 72.00,399.00
             74.63,403.26 76.69,402.46 81.00,401.00
             81.00,401.00 76.00,398.00 76.00,398.00
             84.00,399.29 83.64,403.62 89.00,405.33
             95.59,407.43 102.63,402.58 108.00,399.75
             110.93,398.21 112.25,398.21 115.00,396.00
             115.00,396.00 129.00,388.78 129.00,388.78
             129.00,388.78 142.00,388.78 142.00,388.78
             142.00,388.78 141.00,392.00 141.00,392.00
             149.62,392.00 155.25,391.81 162.99,396.61
             170.59,401.33 169.76,406.63 177.00,407.00
             177.00,407.00 186.00,420.00 186.00,420.00
             186.00,420.00 189.00,419.00 189.00,419.00
             189.00,419.00 188.00,425.00 188.00,425.00
             191.96,419.62 189.10,415.89 186.00,411.00
             192.25,408.21 193.64,407.23 198.00,402.00
             200.22,402.33 202.41,396.94 203.93,395.22
             206.99,391.78 209.68,391.56 214.00,392.00
             214.00,392.00 215.00,388.00 215.00,388.00
             215.00,388.00 212.00,387.00 212.00,387.00
             212.87,383.25 214.73,380.57 213.00,377.00
             213.00,377.00 222.00,361.00 222.00,361.00
             226.57,360.55 229.09,358.60 230.00,354.00
             235.99,357.37 237.12,357.85 244.00,358.00
             244.90,346.97 252.10,353.28 263.00,351.59
             267.32,350.93 270.55,347.35 274.00,344.93
             281.09,339.97 286.55,341.86 289.00,332.00
             293.01,330.69 297.21,327.54 301.04,327.40
             306.91,327.19 314.50,332.17 309.84,338.41
             305.72,343.92 300.13,344.96 294.00,347.00
             297.71,357.34 300.19,354.12 301.00,364.00
             301.00,364.00 305.00,362.00 305.00,362.00
             305.00,362.00 304.00,359.00 304.00,359.00
             304.00,359.00 307.00,357.00 307.00,357.00
             312.09,357.28 312.52,356.13 317.00,354.55
             322.19,352.71 331.51,352.40 333.00,346.00
             333.00,346.00 341.00,349.00 341.00,349.00
             338.68,342.75 336.08,344.73 330.03,345.00
             330.03,345.00 330.03,338.04 330.03,338.04
             330.72,333.76 334.98,331.35 338.57,335.19
             340.97,337.75 341.17,341.38 342.57,343.94
             343.24,345.18 343.91,346.17 345.22,347.05
             346.87,347.61 350.79,347.08 353.00,347.05
             358.86,347.87 361.88,348.80 366.98,351.79
             376.19,357.17 372.26,361.82 374.76,365.86
             377.96,371.01 386.84,370.18 391.00,367.00
             391.00,367.00 415.98,365.85 415.98,365.85
             415.98,365.85 426.02,372.99 426.02,372.99
             426.02,372.99 442.00,377.53 442.00,377.53
             442.00,377.53 455.00,374.00 455.00,374.00
             455.00,374.00 459.00,366.00 459.00,366.00
             459.00,366.00 471.00,364.76 471.00,364.76
             471.00,364.76 477.00,365.53 477.00,365.53
             477.00,365.53 492.00,363.21 492.00,363.21
             492.00,363.21 505.00,364.66 505.00,364.66
             505.00,364.66 512.00,364.00 512.00,364.00
             506.02,369.91 497.96,367.63 491.00,369.00
             494.22,372.06 496.68,374.70 498.00,379.00
             508.72,379.03 504.28,379.71 511.97,383.01
             514.17,383.95 515.12,384.14 516.00,382.00
             516.00,382.00 524.00,386.74 524.00,386.74
             527.96,388.91 536.36,391.24 533.00,397.00
             536.34,398.37 534.68,402.02 534.00,405.00
             534.00,405.00 538.00,406.00 538.00,406.00
             538.00,406.00 539.00,410.00 539.00,410.00
             539.00,410.00 536.00,411.00 536.00,411.00
             536.00,411.00 542.00,412.00 542.00,412.00
             546.66,405.05 552.74,412.18 557.04,415.04
             562.81,418.88 568.55,420.08 573.99,425.10
             576.06,427.02 581.98,433.71 583.42,436.00
             585.74,439.69 584.38,440.15 588.00,444.00
             588.76,447.67 592.93,448.49 596.00,450.60
             602.33,454.96 602.38,456.40 604.74,458.22
             608.47,461.09 612.64,460.61 614.00,469.00
             617.12,466.79 619.93,464.60 623.00,468.00
             623.00,468.00 641.00,470.00 641.00,470.00
             641.00,470.00 639.00,468.00 639.00,468.00
             639.00,468.00 658.00,466.00 658.00,466.00
             658.00,466.00 658.00,488.00 658.00,488.00
             658.00,488.00 176.00,488.00 176.00,488.00
             175.98,483.85 176.73,481.50 173.00,479.00
             173.00,479.00 178.04,471.86 178.04,471.86
             178.04,471.86 175.52,463.01 175.52,463.01
             175.52,463.01 177.00,452.00 177.00,452.00
             177.00,452.00 173.00,453.00 173.00,453.00
             173.00,453.00 169.00,449.00 169.00,449.00
             168.80,442.29 166.49,442.77 162.51,437.96
             158.11,432.64 154.41,428.02 154.00,421.00
             154.00,421.00 158.00,420.00 158.00,420.00
             158.00,420.00 159.00,415.00 159.00,415.00
             159.00,415.00 154.00,416.00 154.00,416.00
             150.73,408.86 139.49,398.65 131.05,403.31
             126.05,406.08 128.06,408.98 122.93,412.96
             117.41,417.24 113.26,416.72 112.32,419.31
             111.31,422.12 119.26,431.98 121.00,435.00
             109.07,439.52 113.92,441.00 100.00,441.00
             100.00,441.00 99.00,432.00 99.00,432.00
             99.00,432.00 94.00,434.00 94.00,434.00
             94.00,434.00 98.00,432.00 98.00,432.00
             98.00,432.00 98.00,430.00 98.00,430.00
             98.00,430.00 96.00,430.00 96.00,430.00
             96.00,430.00 97.00,427.00 97.00,427.00
             97.00,427.00 94.00,432.00 94.00,432.00
             86.53,430.21 85.06,427.22 83.00,420.00
             83.00,420.00 70.00,419.21 70.00,419.21
             70.00,419.21 61.27,418.19 61.27,418.19
             61.27,418.19 57.00,423.00 57.00,423.00
             54.45,417.43 51.42,411.00 46.00,408.00
             47.02,409.24 48.26,410.40 48.83,411.94
             49.97,414.99 47.49,415.84 44.98,415.05
             42.13,414.16 40.72,412.23 39.00,410.00
             46.58,397.02 27.27,394.18 21.33,389.79
             18.48,387.69 19.87,385.74 18.07,383.12
             16.66,381.08 12.25,378.61 10.00,377.00
             10.00,377.00 15.00,385.00 15.00,385.00
             15.00,385.00 11.00,390.00 11.00,390.00
             11.00,390.00 9.00,390.00 9.00,390.00
             9.00,390.00 1.60,381.87 1.60,381.87
             1.60,381.87 1.00,370.00 1.00,370.00
             1.00,370.00 1.00,345.00 1.00,345.00
             1.00,345.00 1.00,253.00 1.00,253.00
             1.00,253.00 12.00,250.39 12.00,250.39 Z
           M 526.00,253.00
           C 526.00,253.00 523.00,253.00 523.00,253.00
             523.00,253.00 524.00,250.00 524.00,250.00
             524.00,250.00 526.00,253.00 526.00,253.00 Z
           M 522.00,268.00
           C 519.71,263.78 518.90,262.81 520.00,258.00
             525.21,260.01 526.84,264.37 522.00,268.00 Z
           M 533.00,277.00
           C 533.00,277.00 534.00,285.00 534.00,285.00
             534.00,285.00 528.00,284.00 528.00,284.00
             528.00,284.00 525.00,275.00 525.00,275.00
             525.00,275.00 533.00,277.00 533.00,277.00 Z
           M 61.00,285.00
           C 61.00,285.00 60.00,286.00 60.00,286.00
             60.00,286.00 60.00,285.00 60.00,285.00
             60.00,285.00 61.00,285.00 61.00,285.00 Z
           M 532.00,300.00
           C 532.00,300.00 530.00,300.00 530.00,300.00
             528.42,295.56 528.87,295.11 531.00,291.00
             532.86,294.65 532.95,296.02 532.00,300.00 Z
           M 527.00,313.00
           C 524.05,310.85 524.73,310.20 526.00,307.00
             526.00,307.00 527.00,313.00 527.00,313.00 Z
           M 563.00,315.00
           C 563.00,315.00 561.00,315.00 561.00,315.00
             561.00,315.00 559.00,308.00 559.00,308.00
             562.71,310.17 563.55,310.60 563.00,315.00 Z
           M 523.00,321.00
           C 523.00,321.00 522.00,322.00 522.00,322.00
             522.00,322.00 522.00,321.00 522.00,321.00
             522.00,321.00 523.00,321.00 523.00,321.00 Z
           M 335.00,323.00
           C 335.00,323.00 334.00,324.00 334.00,324.00
             334.00,324.00 334.00,323.00 334.00,323.00
             334.00,323.00 335.00,323.00 335.00,323.00 Z
           M 519.00,328.00
           C 519.00,328.00 520.00,324.00 520.00,324.00
             520.00,324.00 519.00,328.00 519.00,328.00 Z
           M 363.00,336.00
           C 357.53,334.43 355.52,333.66 354.00,328.00
             354.00,328.00 363.00,336.00 363.00,336.00 Z
           M 375.00,336.00
           C 375.00,336.00 370.00,330.00 370.00,330.00
             374.42,331.02 374.64,331.54 375.00,336.00 Z
           M 517.00,332.00
           C 516.38,335.54 516.42,335.80 513.00,337.00
             513.00,337.00 514.00,332.00 514.00,332.00
             514.00,332.00 517.00,332.00 517.00,332.00 Z
           M 387.00,337.00
           C 387.00,337.00 386.00,338.00 386.00,338.00
             386.00,338.00 386.00,337.00 386.00,337.00
             386.00,337.00 387.00,337.00 387.00,337.00 Z
           M 410.00,342.00
           C 410.00,342.00 404.00,342.00 404.00,342.00
             404.00,342.00 410.00,342.00 410.00,342.00 Z
           M 541.00,351.00
           C 538.80,354.16 536.97,355.57 533.00,355.00
             533.00,355.00 541.00,351.00 541.00,351.00 Z
           M 469.00,355.00
           C 471.89,364.24 460.09,361.08 456.00,358.00
             456.00,358.00 469.00,355.00 469.00,355.00 Z
           M 299.00,359.00
           C 299.00,359.00 300.00,360.00 300.00,360.00
             300.00,360.00 300.00,359.00 300.00,359.00
             300.00,359.00 299.00,359.00 299.00,359.00 Z
           M 303.00,359.00
           C 303.00,359.00 302.00,360.00 302.00,360.00
             302.00,360.00 302.00,359.00 302.00,359.00
             302.00,359.00 303.00,359.00 303.00,359.00 Z
           M 440.00,361.00
           C 440.00,361.00 435.00,361.00 435.00,361.00
             435.00,361.00 435.00,359.00 435.00,359.00
             435.00,359.00 440.00,361.00 440.00,361.00 Z
           M 532.00,362.00
           C 528.83,370.65 532.05,371.98 530.40,375.77
             528.52,380.10 514.39,379.99 510.00,380.00
             510.00,380.00 519.06,371.79 519.06,371.79
             519.06,371.79 516.00,364.00 516.00,364.00
             516.00,364.00 532.00,362.00 532.00,362.00 Z
           M 299.58,371.00
           C 296.22,376.35 289.50,381.38 293.07,387.96
             294.72,391.00 295.89,391.82 299.00,393.00
             299.00,393.00 298.00,400.00 298.00,400.00
             303.03,400.00 306.46,401.01 309.00,396.00
             309.00,396.00 311.00,397.00 311.00,397.00
             311.00,397.00 312.44,385.83 312.44,385.83
             312.44,385.83 306.13,375.00 306.13,375.00
             306.13,375.00 303.00,364.00 303.00,364.00
             303.00,364.00 299.58,371.00 299.58,371.00 Z
           M 211.00,392.00
           C 211.00,392.00 212.00,393.00 212.00,393.00
             212.00,393.00 212.00,392.00 212.00,392.00
             212.00,392.00 211.00,392.00 211.00,392.00 Z
           M 537.00,399.00
           C 537.00,399.00 536.00,400.00 536.00,400.00
             536.00,400.00 536.00,399.00 536.00,399.00
             536.00,399.00 537.00,399.00 537.00,399.00 Z
           M 125.00,409.00
           C 125.00,409.00 126.00,410.00 126.00,410.00
             126.00,410.00 126.00,409.00 126.00,409.00
             126.00,409.00 125.00,409.00 125.00,409.00 Z
           M 146.00,414.00
           C 146.00,414.00 144.00,419.00 144.00,419.00
             144.00,419.00 142.00,413.00 142.00,413.00
             142.00,413.00 146.00,414.00 146.00,414.00 Z
           M 140.00,414.00
           C 140.00,414.00 139.00,415.00 139.00,415.00
             139.00,415.00 139.00,414.00 139.00,414.00
             139.00,414.00 140.00,414.00 140.00,414.00 Z
           M 70.00,421.00
           C 70.00,421.00 69.00,422.00 69.00,422.00
             69.00,422.00 69.00,421.00 69.00,421.00
             69.00,421.00 70.00,421.00 70.00,421.00 Z
           M 83.00,431.00
           C 83.00,431.00 86.00,439.00 86.00,439.00
             81.18,437.33 79.41,436.22 81.00,431.00
             81.00,431.00 83.00,431.00 83.00,431.00 Z
           M 82.00,439.00
           C 82.00,439.00 81.00,440.00 81.00,440.00
             81.00,440.00 81.00,439.00 81.00,439.00
             81.00,439.00 82.00,439.00 82.00,439.00 Z" />
</svg>
