<?xml version="1.0" encoding="UTF-8" standalone="no"?>
<!DOCTYPE svg PUBLIC "-//W3C//DTD SVG 20010904//EN"
              "http://www.w3.org/TR/2001/REC-SVG-20010904/DTD/svg10.dtd">

<svg xmlns="http://www.w3.org/2000/svg"
     width="6.65613in" height="7.02283in"
     viewBox="0 0 599 632">
  <path id="Auswahl"
        fill="none" stroke="black" stroke-width="1"
        d="M 60.00,33.04
           C 60.00,33.04 76.00,34.00 76.00,34.00
             81.30,34.01 92.54,33.23 97.00,35.00
             97.00,35.00 88.00,36.00 88.00,36.00
             88.00,36.00 101.00,35.04 101.00,35.04
             101.00,35.04 114.00,35.04 114.00,35.04
             114.00,35.04 130.00,36.79 130.00,36.79
             130.00,36.79 140.00,36.20 140.00,36.20
             140.00,36.20 159.00,41.00 159.00,41.00
             159.00,41.00 158.00,52.00 158.00,52.00
             158.00,52.00 160.00,49.00 160.00,49.00
             160.00,49.00 160.00,54.00 160.00,54.00
             150.04,55.26 150.18,61.59 143.91,66.35
             140.27,69.11 122.52,73.32 118.00,72.69
             116.16,72.44 114.68,71.71 113.00,71.00
             113.00,71.00 114.00,73.00 114.00,73.00
             108.38,70.63 102.07,70.03 96.00,70.00
             91.87,69.98 84.87,71.21 82.00,68.00
             82.00,68.00 80.00,68.00 80.00,68.00
             76.33,73.63 72.95,70.20 69.00,73.00
             69.00,73.00 64.00,72.00 64.00,72.00
             62.72,69.64 59.08,72.20 57.00,73.00
             57.00,73.00 52.00,68.00 52.00,68.00
             52.00,68.00 53.00,72.00 53.00,72.00
             50.14,69.32 51.66,63.35 53.00,60.00
             53.00,60.00 54.00,64.00 54.00,64.00
             52.94,50.93 53.21,53.07 47.00,42.00
             47.00,42.00 55.00,39.00 55.00,39.00
             53.95,34.28 55.17,33.33 60.00,33.04 Z
           M 234.00,34.00
           C 232.47,40.73 227.07,40.72 221.00,41.00
             221.00,41.00 223.00,46.00 223.00,46.00
             218.48,47.28 216.52,47.28 212.00,46.00
             217.34,35.00 225.23,41.03 230.00,33.00
             230.00,33.00 234.00,34.00 234.00,34.00 Z
           M 120.00,36.00
           C 120.00,36.00 121.00,37.00 121.00,37.00
             121.00,37.00 121.00,36.00 121.00,36.00
             121.00,36.00 120.00,36.00 120.00,36.00 Z
           M 134.00,36.00
           C 134.00,36.00 129.00,35.00 129.00,35.00
             129.00,35.00 134.00,36.00 134.00,36.00 Z
           M 230.00,36.00
           C 230.00,36.00 231.00,37.00 231.00,37.00
             231.00,37.00 231.00,36.00 231.00,36.00
             231.00,36.00 230.00,36.00 230.00,36.00 Z
           M 221.00,40.00
           C 221.00,40.00 227.00,38.00 227.00,38.00
             227.00,38.00 221.00,40.00 221.00,40.00 Z
           M 54.00,40.00
           C 54.00,40.00 55.00,41.00 55.00,41.00
             55.00,41.00 55.00,40.00 55.00,40.00
             55.00,40.00 54.00,40.00 54.00,40.00 Z
           M 148.00,40.00
           C 148.00,40.00 149.00,41.00 149.00,41.00
             149.00,41.00 149.00,40.00 149.00,40.00
             149.00,40.00 148.00,40.00 148.00,40.00 Z
           M 216.00,41.00
           C 216.00,41.00 217.00,42.00 217.00,42.00
             217.00,42.00 217.00,41.00 217.00,41.00
             217.00,41.00 216.00,41.00 216.00,41.00 Z
           M 206.00,42.00
           C 206.00,42.00 201.00,43.00 201.00,43.00
             201.00,43.00 211.00,42.00 211.00,42.00
             211.00,42.00 211.00,47.00 211.00,47.00
             211.00,47.00 197.00,45.00 197.00,45.00
             197.00,45.00 197.00,43.00 197.00,43.00
             200.58,41.66 202.26,40.65 206.00,42.00 Z
           M 215.00,42.00
           C 215.00,42.00 216.00,43.00 216.00,43.00
             216.00,43.00 216.00,42.00 216.00,42.00
             216.00,42.00 215.00,42.00 215.00,42.00 Z
           M 209.00,43.00
           C 209.00,43.00 210.00,44.00 210.00,44.00
             210.00,44.00 210.00,43.00 210.00,43.00
             210.00,43.00 209.00,43.00 209.00,43.00 Z
           M 214.00,43.00
           C 214.00,43.00 215.00,44.00 215.00,44.00
             215.00,44.00 215.00,43.00 215.00,43.00
             215.00,43.00 214.00,43.00 214.00,43.00 Z
           M 50.00,44.00
           C 50.00,44.00 51.00,45.00 51.00,45.00
             51.00,45.00 51.00,44.00 51.00,44.00
             51.00,44.00 50.00,44.00 50.00,44.00 Z
           M 213.00,44.00
           C 213.00,44.00 214.00,45.00 214.00,45.00
             214.00,45.00 214.00,44.00 214.00,44.00
             214.00,44.00 213.00,44.00 213.00,44.00 Z
           M 184.00,44.00
           C 183.32,47.96 182.88,48.11 179.00,49.00
             179.00,49.00 177.00,44.00 177.00,44.00
             177.00,44.00 184.00,44.00 184.00,44.00 Z
           M 51.00,46.00
           C 51.00,46.00 52.00,47.00 52.00,47.00
             52.00,47.00 52.00,46.00 52.00,46.00
             52.00,46.00 51.00,46.00 51.00,46.00 Z
           M 179.00,46.00
           C 179.00,46.00 180.00,47.00 180.00,47.00
             180.00,47.00 180.00,46.00 180.00,46.00
             180.00,46.00 179.00,46.00 179.00,46.00 Z
           M 182.00,46.00
           C 182.00,46.00 183.00,47.00 183.00,47.00
             183.00,47.00 183.00,46.00 183.00,46.00
             183.00,46.00 182.00,46.00 182.00,46.00 Z
           M 52.00,47.00
           C 52.00,47.00 53.00,48.00 53.00,48.00
             53.00,48.00 53.00,47.00 53.00,47.00
             53.00,47.00 52.00,47.00 52.00,47.00 Z
           M 180.00,47.00
           C 180.00,47.00 181.00,48.00 181.00,48.00
             181.00,48.00 181.00,47.00 181.00,47.00
             181.00,47.00 180.00,47.00 180.00,47.00 Z
           M 339.00,47.00
           C 334.60,52.84 327.54,57.98 320.00,55.00
             326.68,50.99 331.01,47.73 339.00,47.00 Z
           M 53.00,49.00
           C 53.00,49.00 54.00,50.00 54.00,50.00
             54.00,50.00 54.00,49.00 54.00,49.00
             54.00,49.00 53.00,49.00 53.00,49.00 Z
           M 55.00,56.00
           C 55.00,56.00 55.00,50.00 55.00,50.00
             55.00,50.00 55.00,56.00 55.00,56.00 Z
           M 330.00,50.00
           C 330.00,50.00 331.00,51.00 331.00,51.00
             331.00,51.00 331.00,50.00 331.00,50.00
             331.00,50.00 330.00,50.00 330.00,50.00 Z
           M 328.00,51.00
           C 328.00,51.00 329.00,52.00 329.00,52.00
             329.00,52.00 329.00,51.00 329.00,51.00
             329.00,51.00 328.00,51.00 328.00,51.00 Z
           M 332.00,51.00
           C 332.00,51.00 333.00,52.00 333.00,52.00
             333.00,52.00 333.00,51.00 333.00,51.00
             333.00,51.00 332.00,51.00 332.00,51.00 Z
           M 155.00,53.00
           C 155.00,53.00 156.00,54.00 156.00,54.00
             156.00,54.00 156.00,53.00 156.00,53.00
             156.00,53.00 155.00,53.00 155.00,53.00 Z
           M 325.00,53.00
           C 325.00,53.00 326.00,54.00 326.00,54.00
             326.00,54.00 326.00,53.00 326.00,53.00
             326.00,53.00 325.00,53.00 325.00,53.00 Z
           M 323.00,54.00
           C 323.00,54.00 324.00,55.00 324.00,55.00
             324.00,55.00 324.00,54.00 324.00,54.00
             324.00,54.00 323.00,54.00 323.00,54.00 Z
           M 151.00,55.00
           C 151.00,55.00 152.00,56.00 152.00,56.00
             152.00,56.00 152.00,55.00 152.00,55.00
             152.00,55.00 151.00,55.00 151.00,55.00 Z
           M 150.00,56.00
           C 150.00,56.00 151.00,57.00 151.00,57.00
             151.00,57.00 151.00,56.00 151.00,56.00
             151.00,56.00 150.00,56.00 150.00,56.00 Z
           M 182.00,58.00
           C 179.61,59.00 167.25,62.01 165.06,61.80
             163.54,61.66 160.86,60.54 162.17,58.55
             163.15,57.06 167.28,57.20 169.00,57.00
             169.00,57.00 167.00,57.00 167.00,57.00
             167.00,57.00 167.00,56.00 167.00,56.00
             172.85,54.95 177.11,53.85 182.00,58.00 Z
           M 170.00,57.00
           C 170.00,57.00 178.00,56.00 178.00,56.00
             178.00,56.00 170.00,57.00 170.00,57.00 Z
           M 149.00,57.00
           C 149.00,57.00 150.00,58.00 150.00,58.00
             150.00,58.00 150.00,57.00 150.00,57.00
             150.00,57.00 149.00,57.00 149.00,57.00 Z
           M 179.00,57.00
           C 179.00,57.00 180.00,58.00 180.00,58.00
             180.00,58.00 180.00,57.00 180.00,57.00
             180.00,57.00 179.00,57.00 179.00,57.00 Z
           M 148.00,58.00
           C 148.00,58.00 149.00,59.00 149.00,59.00
             149.00,59.00 149.00,58.00 149.00,58.00
             149.00,58.00 148.00,58.00 148.00,58.00 Z
           M 163.00,61.00
           C 163.00,61.00 165.00,58.00 165.00,58.00
             162.88,58.83 162.48,58.67 163.00,61.00 Z
           M 170.00,59.00
           C 170.00,59.00 178.00,58.00 178.00,58.00
             178.00,58.00 170.00,59.00 170.00,59.00 Z
           M 11.00,62.00
           C 11.00,62.00 2.00,62.00 2.00,62.00
             2.00,62.00 2.00,60.00 2.00,60.00
             6.58,57.99 8.04,57.68 11.00,62.00 Z
           M 147.00,59.00
           C 147.00,59.00 148.00,60.00 148.00,60.00
             148.00,60.00 148.00,59.00 148.00,59.00
             148.00,59.00 147.00,59.00 147.00,59.00 Z
           M 169.00,59.00
           C 169.00,59.00 170.00,60.00 170.00,60.00
             170.00,60.00 170.00,59.00 170.00,59.00
             170.00,59.00 169.00,59.00 169.00,59.00 Z
           M 332.00,58.00
           C 332.00,58.00 332.00,66.00 332.00,66.00
             326.80,65.87 324.62,65.90 322.00,61.00
             322.00,61.00 332.00,58.00 332.00,58.00 Z
           M 3.00,60.00
           C 3.00,60.00 4.00,61.00 4.00,61.00
             4.00,61.00 4.00,60.00 4.00,60.00
             4.00,60.00 3.00,60.00 3.00,60.00 Z
           M 4.00,61.00
           C 4.00,61.00 5.00,62.00 5.00,62.00
             5.00,62.00 5.00,61.00 5.00,61.00
             5.00,61.00 4.00,61.00 4.00,61.00 Z
           M 146.00,61.00
           C 146.00,61.00 147.00,62.00 147.00,62.00
             147.00,62.00 147.00,61.00 147.00,61.00
             147.00,61.00 146.00,61.00 146.00,61.00 Z
           M 325.00,61.00
           C 325.00,61.00 326.00,62.00 326.00,62.00
             326.00,62.00 326.00,61.00 326.00,61.00
             326.00,61.00 325.00,61.00 325.00,61.00 Z
           M 145.00,62.00
           C 145.00,62.00 146.00,63.00 146.00,63.00
             146.00,63.00 146.00,62.00 146.00,62.00
             146.00,62.00 145.00,62.00 145.00,62.00 Z
           M 324.00,63.00
           C 324.00,63.00 325.00,64.00 325.00,64.00
             325.00,64.00 325.00,63.00 325.00,63.00
             325.00,63.00 324.00,63.00 324.00,63.00 Z
           M 144.00,64.00
           C 144.00,64.00 145.00,65.00 145.00,65.00
             145.00,65.00 145.00,64.00 145.00,64.00
             145.00,64.00 144.00,64.00 144.00,64.00 Z
           M 326.00,64.00
           C 326.00,64.00 327.00,65.00 327.00,65.00
             327.00,65.00 327.00,64.00 327.00,64.00
             327.00,64.00 326.00,64.00 326.00,64.00 Z
           M 142.00,65.00
           C 142.00,65.00 143.00,66.00 143.00,66.00
             143.00,66.00 143.00,65.00 143.00,65.00
             143.00,65.00 142.00,65.00 142.00,65.00 Z
           M 141.00,66.00
           C 141.00,66.00 142.00,67.00 142.00,67.00
             142.00,67.00 142.00,66.00 142.00,66.00
             142.00,66.00 141.00,66.00 141.00,66.00 Z
           M 79.00,67.00
           C 79.00,67.00 80.00,68.00 80.00,68.00
             80.00,68.00 80.00,67.00 80.00,67.00
             80.00,67.00 79.00,67.00 79.00,67.00 Z
           M 82.00,67.00
           C 82.00,67.00 83.00,68.00 83.00,68.00
             83.00,68.00 83.00,67.00 83.00,67.00
             83.00,67.00 82.00,67.00 82.00,67.00 Z
           M 60.00,69.00
           C 60.00,69.00 68.00,68.00 68.00,68.00
             68.00,68.00 60.00,69.00 60.00,69.00 Z
           M 78.00,68.00
           C 78.00,68.00 79.00,69.00 79.00,69.00
             79.00,69.00 79.00,68.00 79.00,68.00
             79.00,68.00 78.00,68.00 78.00,68.00 Z
           M 83.00,69.00
           C 83.00,69.00 91.00,68.00 91.00,68.00
             91.00,68.00 83.00,69.00 83.00,69.00 Z
           M 77.00,69.00
           C 77.00,69.00 78.00,70.00 78.00,70.00
             78.00,70.00 78.00,69.00 78.00,69.00
             78.00,69.00 77.00,69.00 77.00,69.00 Z
           M 109.00,69.00
           C 109.00,69.00 110.00,70.00 110.00,70.00
             110.00,70.00 110.00,69.00 110.00,69.00
             110.00,69.00 109.00,69.00 109.00,69.00 Z
           M 112.00,70.00
           C 112.00,70.00 113.00,71.00 113.00,71.00
             113.00,71.00 113.00,70.00 113.00,70.00
             113.00,70.00 112.00,70.00 112.00,70.00 Z
           M 118.00,71.00
           C 118.00,71.00 119.00,72.00 119.00,72.00
             119.00,72.00 119.00,71.00 119.00,71.00
             119.00,71.00 118.00,71.00 118.00,71.00 Z
           M 345.00,75.00
           C 345.00,75.00 341.00,71.00 341.00,71.00
             341.00,71.00 345.00,75.00 345.00,75.00 Z
           M 220.00,81.92
           C 220.00,81.92 229.00,81.92 229.00,81.92
             224.81,88.52 218.31,87.02 212.00,88.00
             212.00,88.00 215.00,89.00 215.00,89.00
             215.00,89.00 208.00,89.00 208.00,89.00
             208.00,89.00 207.00,85.00 207.00,85.00
             207.00,85.00 206.00,90.00 206.00,90.00
             206.63,79.34 211.82,81.05 220.00,81.92 Z
           M 208.00,83.00
           C 208.00,83.00 209.00,84.00 209.00,84.00
             209.00,84.00 209.00,83.00 209.00,83.00
             209.00,83.00 208.00,83.00 208.00,83.00 Z
           M 226.00,83.00
           C 226.00,83.00 227.00,84.00 227.00,84.00
             227.00,84.00 227.00,83.00 227.00,83.00
             227.00,83.00 226.00,83.00 226.00,83.00 Z
           M 224.00,84.00
           C 224.00,84.00 225.00,85.00 225.00,85.00
             225.00,85.00 225.00,84.00 225.00,84.00
             225.00,84.00 224.00,84.00 224.00,84.00 Z
           M 419.00,98.00
           C 419.00,98.00 408.00,96.00 408.00,96.00
             408.00,96.00 406.00,86.00 406.00,86.00
             406.00,86.00 407.00,86.00 407.00,86.00
             407.00,86.00 409.00,84.00 409.00,84.00
             414.97,89.91 417.30,89.14 419.00,98.00 Z
           M 410.00,88.00
           C 410.00,88.00 411.00,89.00 411.00,89.00
             411.00,89.00 411.00,88.00 411.00,88.00
             411.00,88.00 410.00,88.00 410.00,88.00 Z
           M 411.00,89.00
           C 411.00,89.00 412.00,90.00 412.00,90.00
             412.00,90.00 412.00,89.00 412.00,89.00
             412.00,89.00 411.00,89.00 411.00,89.00 Z
           M 416.00,92.00
           C 416.00,92.00 417.00,93.00 417.00,93.00
             417.00,93.00 417.00,92.00 417.00,92.00
             417.00,92.00 416.00,92.00 416.00,92.00 Z
           M 409.00,94.00
           C 409.00,94.00 410.00,95.00 410.00,95.00
             410.00,95.00 410.00,94.00 410.00,94.00
             410.00,94.00 409.00,94.00 409.00,94.00 Z
           M 416.00,96.00
           C 416.00,96.00 417.00,97.00 417.00,97.00
             417.00,97.00 417.00,96.00 417.00,96.00
             417.00,96.00 416.00,96.00 416.00,96.00 Z
           M 358.00,120.00
           C 352.88,118.52 347.96,115.53 347.00,110.00
             347.00,110.00 341.00,110.00 341.00,110.00
             347.49,100.48 356.87,112.90 358.00,120.00 Z
           M 347.00,107.00
           C 347.00,107.00 348.00,108.00 348.00,108.00
             348.00,108.00 348.00,107.00 348.00,107.00
             348.00,107.00 347.00,107.00 347.00,107.00 Z
           M 343.00,108.00
           C 343.00,108.00 344.00,109.00 344.00,109.00
             344.00,109.00 344.00,108.00 344.00,108.00
             344.00,108.00 343.00,108.00 343.00,108.00 Z
           M 349.00,108.00
           C 349.00,108.00 350.00,109.00 350.00,109.00
             350.00,109.00 350.00,108.00 350.00,108.00
             350.00,108.00 349.00,108.00 349.00,108.00 Z
           M 350.00,109.00
           C 350.00,109.00 351.00,110.00 351.00,110.00
             351.00,110.00 351.00,109.00 351.00,109.00
             351.00,109.00 350.00,109.00 350.00,109.00 Z
           M 351.00,111.00
           C 351.00,111.00 352.00,112.00 352.00,112.00
             352.00,112.00 352.00,111.00 352.00,111.00
             352.00,111.00 351.00,111.00 351.00,111.00 Z
           M 352.00,112.00
           C 352.00,112.00 353.00,113.00 353.00,113.00
             353.00,113.00 353.00,112.00 353.00,112.00
             353.00,112.00 352.00,112.00 352.00,112.00 Z
           M 353.00,113.00
           C 353.00,113.00 354.00,114.00 354.00,114.00
             354.00,114.00 354.00,113.00 354.00,113.00
             354.00,113.00 353.00,113.00 353.00,113.00 Z
           M 351.00,114.00
           C 351.00,114.00 352.00,115.00 352.00,115.00
             352.00,115.00 352.00,114.00 352.00,114.00
             352.00,114.00 351.00,114.00 351.00,114.00 Z
           M 354.00,114.00
           C 354.00,114.00 355.00,115.00 355.00,115.00
             355.00,115.00 355.00,114.00 355.00,114.00
             355.00,114.00 354.00,114.00 354.00,114.00 Z
           M 353.00,115.00
           C 353.00,115.00 354.00,116.00 354.00,116.00
             354.00,116.00 354.00,115.00 354.00,115.00
             354.00,115.00 353.00,115.00 353.00,115.00 Z
           M 355.00,115.00
           C 355.00,115.00 356.00,116.00 356.00,116.00
             356.00,116.00 356.00,115.00 356.00,115.00
             356.00,115.00 355.00,115.00 355.00,115.00 Z
           M 355.00,118.00
           C 355.00,118.00 356.00,119.00 356.00,119.00
             356.00,119.00 356.00,118.00 356.00,118.00
             356.00,118.00 355.00,118.00 355.00,118.00 Z
           M 357.73,123.15
           C 361.07,116.19 367.16,126.89 361.00,127.00
             361.00,127.00 362.00,122.00 362.00,122.00
             360.66,125.33 360.53,125.39 357.00,126.00
             357.22,125.01 357.26,124.12 357.73,123.15 Z
           M 361.00,121.00
           C 361.00,121.00 362.00,122.00 362.00,122.00
             362.00,122.00 362.00,121.00 362.00,121.00
             362.00,121.00 361.00,121.00 361.00,121.00 Z
           M 420.67,125.70
           C 424.24,129.09 420.59,132.59 417.00,133.57
             408.99,135.75 401.58,128.01 410.11,122.78
             413.62,122.23 417.95,123.12 420.67,125.70 Z
           M 408.00,124.00
           C 408.00,124.00 409.00,125.00 409.00,125.00
             409.00,125.00 409.00,124.00 409.00,124.00
             409.00,124.00 408.00,124.00 408.00,124.00 Z
           M 415.00,124.00
           C 415.00,124.00 416.00,125.00 416.00,125.00
             416.00,125.00 416.00,124.00 416.00,124.00
             416.00,124.00 415.00,124.00 415.00,124.00 Z
           M 417.00,125.00
           C 417.00,125.00 418.00,126.00 418.00,126.00
             418.00,126.00 418.00,125.00 418.00,125.00
             418.00,125.00 417.00,125.00 417.00,125.00 Z
           M 420.00,130.00
           C 420.00,130.00 421.00,131.00 421.00,131.00
             421.00,131.00 421.00,130.00 421.00,130.00
             421.00,130.00 420.00,130.00 420.00,130.00 Z
           M 408.00,131.00
           C 408.00,131.00 409.00,132.00 409.00,132.00
             409.00,132.00 409.00,131.00 409.00,131.00
             409.00,131.00 408.00,131.00 408.00,131.00 Z
           M 419.00,131.00
           C 419.00,131.00 420.00,132.00 420.00,132.00
             420.00,132.00 420.00,131.00 420.00,131.00
             420.00,131.00 419.00,131.00 419.00,131.00 Z
           M 389.66,149.00
           C 389.77,149.91 389.86,150.94 389.66,151.85
             387.95,159.03 380.79,149.91 385.60,146.02
             386.66,145.16 387.78,145.21 389.00,145.00
             389.00,145.00 389.66,149.00 389.66,149.00 Z
           M 387.00,146.00
           C 387.00,146.00 388.00,147.00 388.00,147.00
             388.00,147.00 388.00,146.00 388.00,146.00
             388.00,146.00 387.00,146.00 387.00,146.00 Z
           M 385.00,147.00
           C 385.00,147.00 386.00,147.00 386.00,147.00
             386.00,147.00 386.00,146.00 386.00,146.00
             386.00,146.00 385.00,147.00 385.00,147.00 Z
           M 385.00,152.00
           C 385.00,152.00 386.00,153.00 386.00,153.00
             386.00,153.00 386.00,152.00 386.00,152.00
             386.00,152.00 385.00,152.00 385.00,152.00 Z
           M 386.00,153.00
           C 386.00,153.00 387.00,154.00 387.00,154.00
             387.00,154.00 387.00,153.00 387.00,153.00
             387.00,153.00 386.00,153.00 386.00,153.00 Z
           M 388.00,153.00
           C 388.00,153.00 389.00,154.00 389.00,154.00
             389.00,154.00 389.00,153.00 389.00,153.00
             389.00,153.00 388.00,153.00 388.00,153.00 Z
           M 429.26,197.98
           C 428.46,200.04 426.95,201.81 424.96,202.81
             418.62,205.98 415.27,198.96 414.04,194.00
             412.88,189.33 410.89,176.67 418.02,176.25
             422.58,175.98 426.52,180.31 429.65,178.19
             433.10,175.85 429.36,169.65 433.43,166.71
             435.23,165.40 437.08,166.06 438.58,167.45
             440.65,169.36 440.84,172.14 443.30,174.61
             446.67,178.00 450.50,177.88 456.00,184.00
             456.00,184.00 448.00,184.00 448.00,184.00
             448.00,184.00 451.00,185.00 451.00,185.00
             451.00,185.00 441.00,185.00 441.00,185.00
             439.52,189.46 431.53,186.50 428.00,186.00
             429.55,189.72 430.82,194.01 429.26,197.98 Z
           M 433.00,168.00
           C 433.00,168.00 434.00,169.00 434.00,169.00
             434.00,169.00 434.00,168.00 434.00,168.00
             434.00,168.00 433.00,168.00 433.00,168.00 Z
           M 437.00,168.00
           C 437.00,168.00 438.00,169.00 438.00,169.00
             438.00,169.00 438.00,168.00 438.00,168.00
             438.00,168.00 437.00,168.00 437.00,168.00 Z
           M 432.00,169.00
           C 432.00,169.00 433.00,170.00 433.00,170.00
             433.00,170.00 433.00,169.00 433.00,169.00
             433.00,169.00 432.00,169.00 432.00,169.00 Z
           M 438.00,169.00
           C 438.00,169.00 439.00,170.00 439.00,170.00
             439.00,170.00 439.00,169.00 439.00,169.00
             439.00,169.00 438.00,169.00 438.00,169.00 Z
           M 440.00,174.00
           C 440.00,174.00 441.00,175.00 441.00,175.00
             441.00,175.00 441.00,174.00 441.00,174.00
             441.00,174.00 440.00,174.00 440.00,174.00 Z
           M 433.00,175.00
           C 433.00,175.00 434.00,176.00 434.00,176.00
             434.00,176.00 434.00,175.00 434.00,175.00
             434.00,175.00 433.00,175.00 433.00,175.00 Z
           M 441.00,176.00
           C 441.00,176.00 442.00,177.00 442.00,177.00
             442.00,177.00 442.00,176.00 442.00,176.00
             442.00,176.00 441.00,176.00 441.00,176.00 Z
           M 415.00,177.00
           C 415.00,177.00 416.00,178.00 416.00,178.00
             416.00,178.00 416.00,177.00 416.00,177.00
             416.00,177.00 415.00,177.00 415.00,177.00 Z
           M 433.00,177.00
           C 433.00,177.00 434.00,178.00 434.00,178.00
             434.00,178.00 434.00,177.00 434.00,177.00
             434.00,177.00 433.00,177.00 433.00,177.00 Z
           M 443.00,177.00
           C 443.00,177.00 444.00,178.00 444.00,178.00
             444.00,178.00 444.00,177.00 444.00,177.00
             444.00,177.00 443.00,177.00 443.00,177.00 Z
           M 414.00,178.00
           C 414.00,178.00 415.00,179.00 415.00,179.00
             415.00,179.00 415.00,178.00 415.00,178.00
             415.00,178.00 414.00,178.00 414.00,178.00 Z
           M 422.00,178.00
           C 422.00,178.00 423.00,179.00 423.00,179.00
             423.00,179.00 423.00,178.00 423.00,178.00
             423.00,178.00 422.00,178.00 422.00,178.00 Z
           M 432.00,178.00
           C 432.00,178.00 433.00,179.00 433.00,179.00
             433.00,179.00 433.00,178.00 433.00,178.00
             433.00,178.00 432.00,178.00 432.00,178.00 Z
           M 446.00,178.00
           C 446.00,178.00 447.00,179.00 447.00,179.00
             447.00,179.00 447.00,178.00 447.00,178.00
             447.00,178.00 446.00,178.00 446.00,178.00 Z
           M 424.00,179.00
           C 424.00,179.00 425.00,180.00 425.00,180.00
             425.00,180.00 425.00,179.00 425.00,179.00
             425.00,179.00 424.00,179.00 424.00,179.00 Z
           M 431.00,179.00
           C 431.00,179.00 432.00,180.00 432.00,180.00
             432.00,180.00 432.00,179.00 432.00,179.00
             432.00,179.00 431.00,179.00 431.00,179.00 Z
           M 448.00,179.00
           C 448.00,179.00 449.00,180.00 449.00,180.00
             449.00,180.00 449.00,179.00 449.00,179.00
             449.00,179.00 448.00,179.00 448.00,179.00 Z
           M 426.00,180.00
           C 426.00,180.00 427.00,181.00 427.00,181.00
             427.00,181.00 427.00,180.00 427.00,180.00
             427.00,180.00 426.00,180.00 426.00,180.00 Z
           M 430.00,180.00
           C 430.00,180.00 431.00,181.00 431.00,181.00
             431.00,181.00 431.00,180.00 431.00,180.00
             431.00,180.00 430.00,180.00 430.00,180.00 Z
           M 449.00,180.00
           C 449.00,180.00 450.00,181.00 450.00,181.00
             450.00,181.00 450.00,180.00 450.00,180.00
             450.00,180.00 449.00,180.00 449.00,180.00 Z
           M 451.00,181.00
           C 451.00,181.00 452.00,182.00 452.00,182.00
             452.00,182.00 452.00,181.00 452.00,181.00
             452.00,181.00 451.00,181.00 451.00,181.00 Z
           M 452.00,182.00
           C 452.00,182.00 453.00,183.00 453.00,183.00
             453.00,183.00 453.00,182.00 453.00,182.00
             453.00,182.00 452.00,182.00 452.00,182.00 Z
           M 427.00,184.00
           C 427.00,184.00 428.00,185.00 428.00,185.00
             428.00,185.00 428.00,184.00 428.00,184.00
             428.00,184.00 427.00,184.00 427.00,184.00 Z
           M 416.00,197.00
           C 416.00,197.00 417.00,198.00 417.00,198.00
             417.00,198.00 417.00,197.00 417.00,197.00
             417.00,197.00 416.00,197.00 416.00,197.00 Z
           M 428.00,197.00
           C 428.00,197.00 429.00,198.00 429.00,198.00
             429.00,198.00 429.00,197.00 429.00,197.00
             429.00,197.00 428.00,197.00 428.00,197.00 Z
           M 417.00,199.00
           C 417.00,199.00 418.00,200.00 418.00,200.00
             418.00,200.00 418.00,199.00 418.00,199.00
             418.00,199.00 417.00,199.00 417.00,199.00 Z
           M 427.00,199.00
           C 427.00,199.00 428.00,200.00 428.00,200.00
             428.00,200.00 428.00,199.00 428.00,199.00
             428.00,199.00 427.00,199.00 427.00,199.00 Z
           M 418.00,200.00
           C 418.00,200.00 419.00,201.00 419.00,201.00
             419.00,201.00 419.00,200.00 419.00,200.00
             419.00,200.00 418.00,200.00 418.00,200.00 Z
           M 426.00,200.00
           C 426.00,200.00 427.00,201.00 427.00,201.00
             427.00,201.00 427.00,200.00 427.00,200.00
             427.00,200.00 426.00,200.00 426.00,200.00 Z
           M 419.00,201.00
           C 419.00,201.00 420.00,202.00 420.00,202.00
             420.00,202.00 420.00,201.00 420.00,201.00
             420.00,201.00 419.00,201.00 419.00,201.00 Z
           M 424.00,201.00
           C 424.00,201.00 425.00,202.00 425.00,202.00
             425.00,202.00 425.00,201.00 425.00,201.00
             425.00,201.00 424.00,201.00 424.00,201.00 Z
           M 438.45,245.00
           C 436.68,240.02 431.76,231.91 434.60,226.33
             436.33,222.91 441.71,225.53 443.98,226.99
             452.86,232.70 447.95,238.19 450.00,246.00
             450.00,246.00 451.00,240.00 451.00,240.00
             450.82,248.16 449.71,252.33 441.00,254.00
             441.00,254.00 438.45,245.00 438.45,245.00 Z
           M 436.00,228.00
           C 436.00,228.00 438.00,225.00 438.00,225.00
             435.88,225.83 435.48,225.67 436.00,228.00 Z
           M 439.00,226.00
           C 439.00,226.00 440.00,227.00 440.00,227.00
             440.00,227.00 440.00,226.00 440.00,226.00
             440.00,226.00 439.00,226.00 439.00,226.00 Z
           M 445.00,229.00
           C 445.00,229.00 446.00,230.00 446.00,230.00
             446.00,230.00 446.00,229.00 446.00,229.00
             446.00,229.00 445.00,229.00 445.00,229.00 Z
           M 446.00,230.00
           C 446.00,230.00 447.00,231.00 447.00,231.00
             447.00,231.00 447.00,230.00 447.00,230.00
             447.00,230.00 446.00,230.00 446.00,230.00 Z
           M 439.00,243.00
           C 439.00,243.00 440.00,244.00 440.00,244.00
             440.00,244.00 440.00,243.00 440.00,243.00
             440.00,243.00 439.00,243.00 439.00,243.00 Z
           M 448.00,248.00
           C 448.00,248.00 449.00,249.00 449.00,249.00
             449.00,249.00 449.00,248.00 449.00,248.00
             449.00,248.00 448.00,248.00 448.00,248.00 Z
           M 447.00,249.00
           C 447.00,249.00 448.00,250.00 448.00,250.00
             448.00,250.00 448.00,249.00 448.00,249.00
             448.00,249.00 447.00,249.00 447.00,249.00 Z
           M 446.00,250.00
           C 446.00,250.00 447.00,251.00 447.00,251.00
             447.00,251.00 447.00,250.00 447.00,250.00
             447.00,250.00 446.00,250.00 446.00,250.00 Z
           M 445.00,251.00
           C 445.00,251.00 446.00,252.00 446.00,252.00
             446.00,252.00 446.00,251.00 446.00,251.00
             446.00,251.00 445.00,251.00 445.00,251.00 Z
           M 443.00,252.00
           C 443.00,252.00 444.00,253.00 444.00,253.00
             444.00,253.00 444.00,252.00 444.00,252.00
             444.00,252.00 443.00,252.00 443.00,252.00 Z
           M 457.21,292.61
           C 454.34,289.98 449.76,281.18 452.19,277.43
             454.82,273.36 463.82,274.27 468.00,283.00
             468.00,283.00 476.00,282.00 476.00,282.00
             476.00,282.00 475.00,287.00 475.00,287.00
             475.34,295.63 484.66,305.50 472.00,307.00
             472.00,307.00 473.00,304.00 473.00,304.00
             469.88,304.00 458.43,305.39 460.65,299.25
             461.26,297.58 462.66,296.92 464.00,296.00
             461.27,295.19 459.39,294.60 457.21,292.61 Z
           M 453.00,277.00
           C 453.00,277.00 454.00,278.00 454.00,278.00
             454.00,278.00 454.00,277.00 454.00,277.00
             454.00,277.00 453.00,277.00 453.00,277.00 Z
           M 452.00,278.00
           C 452.00,278.00 453.00,279.00 453.00,279.00
             453.00,279.00 453.00,278.00 453.00,278.00
             453.00,278.00 452.00,278.00 452.00,278.00 Z
           M 463.00,278.00
           C 463.00,278.00 464.00,279.00 464.00,279.00
             464.00,279.00 464.00,278.00 464.00,278.00
             464.00,278.00 463.00,278.00 463.00,278.00 Z
           M 464.00,279.00
           C 464.00,279.00 465.00,280.00 465.00,280.00
             465.00,280.00 465.00,279.00 465.00,279.00
             465.00,279.00 464.00,279.00 464.00,279.00 Z
           M 465.00,280.00
           C 465.00,280.00 466.00,281.00 466.00,281.00
             466.00,281.00 466.00,280.00 466.00,280.00
             466.00,280.00 465.00,280.00 465.00,280.00 Z
           M 453.00,283.00
           C 453.00,283.00 454.00,284.00 454.00,284.00
             454.00,284.00 454.00,283.00 454.00,283.00
             454.00,283.00 453.00,283.00 453.00,283.00 Z
           M 467.00,283.00
           C 467.00,283.00 468.00,284.00 468.00,284.00
             468.00,284.00 468.00,283.00 468.00,283.00
             468.00,283.00 467.00,283.00 467.00,283.00 Z
           M 454.00,285.00
           C 454.00,285.00 455.00,286.00 455.00,286.00
             455.00,286.00 455.00,285.00 455.00,285.00
             455.00,285.00 454.00,285.00 454.00,285.00 Z
           M 472.00,287.00
           C 472.00,287.00 473.00,288.00 473.00,288.00
             473.00,288.00 473.00,287.00 473.00,287.00
             473.00,287.00 472.00,287.00 472.00,287.00 Z
           M 471.00,288.00
           C 471.00,288.00 472.00,289.00 472.00,289.00
             472.00,289.00 472.00,288.00 472.00,288.00
             472.00,288.00 471.00,288.00 471.00,288.00 Z
           M 473.00,290.00
           C 473.00,290.00 474.00,291.00 474.00,291.00
             474.00,291.00 474.00,290.00 474.00,290.00
             474.00,290.00 473.00,290.00 473.00,290.00 Z
           M 457.00,291.00
           C 457.00,291.00 458.00,292.00 458.00,292.00
             458.00,292.00 458.00,291.00 458.00,291.00
             458.00,291.00 457.00,291.00 457.00,291.00 Z
           M 474.00,292.00
           C 474.00,292.00 475.00,293.00 475.00,293.00
             475.00,293.00 475.00,292.00 475.00,292.00
             475.00,292.00 474.00,292.00 474.00,292.00 Z
           M 464.00,295.00
           C 464.00,295.00 465.00,296.00 465.00,296.00
             465.00,296.00 465.00,295.00 465.00,295.00
             465.00,295.00 464.00,295.00 464.00,295.00 Z
           M 466.00,296.00
           C 466.00,296.00 467.00,297.00 467.00,297.00
             467.00,297.00 467.00,296.00 467.00,296.00
             467.00,296.00 466.00,296.00 466.00,296.00 Z
           M 467.00,297.00
           C 467.00,297.00 468.00,298.00 468.00,298.00
             468.00,298.00 468.00,297.00 468.00,297.00
             468.00,297.00 467.00,297.00 467.00,297.00 Z
           M 461.00,298.00
           C 461.00,298.00 462.00,299.00 462.00,299.00
             462.00,299.00 462.00,298.00 462.00,298.00
             462.00,298.00 461.00,298.00 461.00,298.00 Z
           M 474.00,303.00
           C 474.00,303.00 475.00,304.00 475.00,304.00
             475.00,304.00 475.00,303.00 475.00,303.00
             475.00,303.00 474.00,303.00 474.00,303.00 Z
           M 476.00,304.00
           C 476.00,304.00 477.00,305.00 477.00,305.00
             477.00,305.00 477.00,304.00 477.00,304.00
             477.00,304.00 476.00,304.00 476.00,304.00 Z
           M 473.00,305.00
           C 473.00,305.00 474.00,306.00 474.00,306.00
             474.00,306.00 474.00,305.00 474.00,305.00
             474.00,305.00 473.00,305.00 473.00,305.00 Z
           M 475.00,305.00
           C 475.00,305.00 476.00,306.00 476.00,306.00
             476.00,306.00 476.00,305.00 476.00,305.00
             476.00,305.00 475.00,305.00 475.00,305.00 Z
           M 463.67,349.78
           C 457.91,341.80 464.18,328.61 473.00,326.00
             476.90,338.00 477.36,342.78 471.00,354.00
             468.36,353.05 465.40,352.17 463.67,349.78 Z
           M 471.00,327.00
           C 471.00,327.00 472.00,328.00 472.00,328.00
             472.00,328.00 472.00,327.00 472.00,327.00
             472.00,327.00 471.00,327.00 471.00,327.00 Z
           M 469.00,328.00
           C 469.00,328.00 470.00,329.00 470.00,329.00
             470.00,329.00 470.00,328.00 470.00,328.00
             470.00,328.00 469.00,328.00 469.00,328.00 Z
           M 468.00,329.00
           C 468.00,329.00 469.00,330.00 469.00,330.00
             469.00,330.00 469.00,329.00 469.00,329.00
             469.00,329.00 468.00,329.00 468.00,329.00 Z
           M 467.00,331.00
           C 467.00,331.00 468.00,332.00 468.00,332.00
             468.00,332.00 468.00,331.00 468.00,331.00
             468.00,331.00 467.00,331.00 467.00,331.00 Z
           M 466.00,332.00
           C 466.00,332.00 467.00,333.00 467.00,333.00
             467.00,333.00 467.00,332.00 467.00,332.00
             467.00,332.00 466.00,332.00 466.00,332.00 Z
           M 465.00,334.00
           C 465.00,334.00 466.00,335.00 466.00,335.00
             466.00,335.00 466.00,334.00 466.00,334.00
             466.00,334.00 465.00,334.00 465.00,334.00 Z
           M 464.00,335.00
           C 464.00,335.00 465.00,336.00 465.00,336.00
             465.00,336.00 465.00,335.00 465.00,335.00
             465.00,335.00 464.00,335.00 464.00,335.00 Z
           M 475.00,343.00
           C 475.00,343.00 475.00,336.00 475.00,336.00
             475.00,336.00 475.00,343.00 475.00,343.00 Z
           M 463.00,337.00
           C 463.00,337.00 464.00,338.00 464.00,338.00
             464.00,338.00 464.00,337.00 464.00,337.00
             464.00,337.00 463.00,337.00 463.00,337.00 Z
           M 462.00,339.00
           C 462.00,339.00 463.00,340.00 463.00,340.00
             463.00,340.00 463.00,339.00 463.00,339.00
             463.00,339.00 462.00,339.00 462.00,339.00 Z
           M 462.00,342.00
           C 462.00,342.00 463.00,343.00 463.00,343.00
             463.00,343.00 463.00,342.00 463.00,342.00
             463.00,342.00 462.00,342.00 462.00,342.00 Z
           M 462.00,345.00
           C 462.00,345.00 461.00,346.00 461.00,346.00
             461.00,346.00 461.00,345.00 461.00,345.00
             461.00,345.00 462.00,345.00 462.00,345.00 Z
           M 463.00,348.00
           C 463.00,348.00 464.00,349.00 464.00,349.00
             464.00,349.00 464.00,348.00 464.00,348.00
             464.00,348.00 463.00,348.00 463.00,348.00 Z
           M 464.00,349.00
           C 464.00,349.00 465.00,350.00 465.00,350.00
             465.00,350.00 465.00,349.00 465.00,349.00
             465.00,349.00 464.00,349.00 464.00,349.00 Z
           M 466.00,350.00
           C 466.00,350.00 467.00,351.00 467.00,351.00
             467.00,351.00 467.00,350.00 467.00,350.00
             467.00,350.00 466.00,350.00 466.00,350.00 Z
           M 471.00,350.00
           C 471.00,350.00 472.00,351.00 472.00,351.00
             472.00,351.00 472.00,350.00 472.00,350.00
             472.00,350.00 471.00,350.00 471.00,350.00 Z
           M 455.89,390.87
           C 452.31,393.18 448.20,389.52 447.52,386.00
             446.77,382.07 449.21,378.51 452.02,376.13
             461.97,372.77 459.41,388.60 455.89,390.87 Z
           M 453.00,376.00
           C 453.00,376.00 454.00,377.00 454.00,377.00
             454.00,377.00 454.00,376.00 454.00,376.00
             454.00,376.00 453.00,376.00 453.00,376.00 Z
           M 456.00,376.00
           C 456.00,376.00 457.00,377.00 457.00,377.00
             457.00,377.00 457.00,376.00 457.00,376.00
             457.00,376.00 456.00,376.00 456.00,376.00 Z
           M 452.00,377.00
           C 452.00,377.00 453.00,378.00 453.00,378.00
             453.00,378.00 453.00,377.00 453.00,377.00
             453.00,377.00 452.00,377.00 452.00,377.00 Z
           M 451.00,378.00
           C 451.00,378.00 452.00,379.00 452.00,379.00
             452.00,379.00 452.00,378.00 452.00,378.00
             452.00,378.00 451.00,378.00 451.00,378.00 Z
           M 457.00,378.00
           C 457.00,378.00 458.00,379.00 458.00,379.00
             458.00,379.00 458.00,378.00 458.00,378.00
             458.00,378.00 457.00,378.00 457.00,378.00 Z
           M 450.00,379.00
           C 450.00,379.00 451.00,380.00 451.00,380.00
             451.00,380.00 451.00,379.00 451.00,379.00
             451.00,379.00 450.00,379.00 450.00,379.00 Z
           M 566.08,383.90
           C 567.15,384.94 570.39,387.55 570.95,388.59
             572.84,392.13 568.08,396.02 565.00,396.67
             556.44,398.46 553.81,384.19 557.59,379.08
             561.94,378.02 563.20,381.10 566.08,383.90 Z
           M 557.00,380.00
           C 557.00,380.00 558.00,381.00 558.00,381.00
             558.00,381.00 558.00,380.00 558.00,380.00
             558.00,380.00 557.00,380.00 557.00,380.00 Z
           M 449.00,381.00
           C 449.00,381.00 450.00,382.00 450.00,382.00
             450.00,382.00 450.00,381.00 450.00,381.00
             450.00,381.00 449.00,381.00 449.00,381.00 Z
           M 561.00,381.00
           C 561.00,381.00 562.00,382.00 562.00,382.00
             562.00,382.00 562.00,381.00 562.00,381.00
             562.00,381.00 561.00,381.00 561.00,381.00 Z
           M 562.00,382.00
           C 562.00,382.00 563.00,383.00 563.00,383.00
             563.00,383.00 563.00,382.00 563.00,382.00
             563.00,382.00 562.00,382.00 562.00,382.00 Z
           M 563.00,383.00
           C 563.00,383.00 564.00,384.00 564.00,384.00
             564.00,384.00 564.00,383.00 564.00,383.00
             564.00,383.00 563.00,383.00 563.00,383.00 Z
           M 565.00,385.00
           C 565.00,385.00 566.00,386.00 566.00,386.00
             566.00,386.00 566.00,385.00 566.00,385.00
             566.00,385.00 565.00,385.00 565.00,385.00 Z
           M 566.00,386.00
           C 566.00,386.00 567.00,387.00 567.00,387.00
             567.00,387.00 567.00,386.00 567.00,386.00
             567.00,386.00 566.00,386.00 566.00,386.00 Z
           M 567.00,387.00
           C 567.00,387.00 568.00,388.00 568.00,388.00
             568.00,388.00 568.00,387.00 568.00,387.00
             568.00,387.00 567.00,387.00 567.00,387.00 Z
           M 449.00,388.00
           C 449.00,388.00 450.00,389.00 450.00,389.00
             450.00,389.00 450.00,388.00 450.00,388.00
             450.00,388.00 449.00,388.00 449.00,388.00 Z
           M 456.00,388.00
           C 456.00,388.00 457.00,389.00 457.00,389.00
             457.00,389.00 457.00,388.00 457.00,388.00
             457.00,388.00 456.00,388.00 456.00,388.00 Z
           M 569.00,388.00
           C 569.00,388.00 570.00,389.00 570.00,389.00
             570.00,389.00 570.00,388.00 570.00,388.00
             570.00,388.00 569.00,388.00 569.00,388.00 Z
           M 450.00,389.00
           C 450.00,389.00 451.00,390.00 451.00,390.00
             451.00,390.00 451.00,389.00 451.00,389.00
             451.00,389.00 450.00,389.00 450.00,389.00 Z
           M 451.00,390.00
           C 451.00,390.00 452.00,391.00 452.00,391.00
             452.00,391.00 452.00,390.00 452.00,390.00
             452.00,390.00 451.00,390.00 451.00,390.00 Z
           M 455.00,390.00
           C 455.00,390.00 456.00,391.00 456.00,391.00
             456.00,391.00 456.00,390.00 456.00,390.00
             456.00,390.00 455.00,390.00 455.00,390.00 Z
           M 569.00,392.00
           C 569.00,392.00 570.00,393.00 570.00,393.00
             570.00,393.00 570.00,392.00 570.00,392.00
             570.00,392.00 569.00,392.00 569.00,392.00 Z
           M 568.00,393.00
           C 568.00,393.00 569.00,394.00 569.00,394.00
             569.00,394.00 569.00,393.00 569.00,393.00
             569.00,393.00 568.00,393.00 568.00,393.00 Z
           M 567.00,394.00
           C 567.00,394.00 568.00,395.00 568.00,395.00
             568.00,395.00 568.00,394.00 568.00,394.00
             568.00,394.00 567.00,394.00 567.00,394.00 Z
           M 561.00,395.00
           C 561.00,395.00 562.00,396.00 562.00,396.00
             562.00,396.00 562.00,395.00 562.00,395.00
             562.00,395.00 561.00,395.00 561.00,395.00 Z
           M 565.00,395.00
           C 565.00,395.00 566.00,396.00 566.00,396.00
             566.00,396.00 566.00,395.00 566.00,395.00
             566.00,395.00 565.00,395.00 565.00,395.00 Z
           M 425.58,452.61
           C 427.26,454.47 426.48,457.79 425.58,460.00
             423.58,466.87 419.71,468.48 413.00,467.00
             413.00,467.00 413.00,465.00 413.00,465.00
             413.00,465.00 416.00,464.00 416.00,464.00
             414.27,455.06 421.53,448.78 425.58,452.61 Z
           M 424.00,452.00
           C 424.00,452.00 425.00,453.00 425.00,453.00
             425.00,453.00 425.00,452.00 425.00,452.00
             425.00,452.00 424.00,452.00 424.00,452.00 Z
           M 420.00,453.00
           C 420.00,453.00 421.00,454.00 421.00,454.00
             421.00,454.00 421.00,453.00 421.00,453.00
             421.00,453.00 420.00,453.00 420.00,453.00 Z
           M 419.00,454.00
           C 419.00,454.00 420.00,455.00 420.00,455.00
             420.00,455.00 420.00,454.00 420.00,454.00
             420.00,454.00 419.00,454.00 419.00,454.00 Z
           M 418.00,455.00
           C 418.00,455.00 419.00,456.00 419.00,456.00
             419.00,456.00 419.00,455.00 419.00,455.00
             419.00,455.00 418.00,455.00 418.00,455.00 Z
           M 417.00,457.00
           C 417.00,457.00 418.00,458.00 418.00,458.00
             418.00,458.00 418.00,457.00 418.00,457.00
             418.00,457.00 417.00,457.00 417.00,457.00 Z
           M 423.00,462.00
           C 423.00,462.00 424.00,463.00 424.00,463.00
             424.00,463.00 424.00,462.00 424.00,462.00
             424.00,462.00 423.00,462.00 423.00,462.00 Z
           M 422.00,463.00
           C 422.00,463.00 423.00,464.00 423.00,464.00
             423.00,464.00 423.00,463.00 423.00,463.00
             423.00,463.00 422.00,463.00 422.00,463.00 Z
           M 416.00,464.00
           C 416.00,464.00 417.00,465.00 417.00,465.00
             417.00,465.00 417.00,464.00 417.00,464.00
             417.00,464.00 416.00,464.00 416.00,464.00 Z
           M 419.00,466.00
           C 419.00,466.00 416.00,465.00 416.00,465.00
             416.00,467.23 417.42,466.54 419.00,466.00 Z
           M 420.00,465.00
           C 420.00,465.00 421.00,466.00 421.00,466.00
             421.00,466.00 421.00,465.00 421.00,465.00
             421.00,465.00 420.00,465.00 420.00,465.00 Z
           M 498.89,510.00
           C 499.32,511.90 499.78,512.88 498.89,514.79
             496.39,519.40 482.98,523.54 478.00,525.00
             478.00,525.00 476.00,521.00 476.00,521.00
             486.51,512.47 486.03,512.36 498.89,510.00 Z
           M 491.00,513.00
           C 491.00,513.00 497.00,512.00 497.00,512.00
             497.00,512.00 491.00,513.00 491.00,513.00 Z
           M 487.00,514.00
           C 487.00,514.00 488.00,515.00 488.00,515.00
             488.00,515.00 488.00,514.00 488.00,514.00
             488.00,514.00 487.00,514.00 487.00,514.00 Z
           M 485.00,515.00
           C 485.00,515.00 486.00,516.00 486.00,516.00
             486.00,516.00 486.00,515.00 486.00,515.00
             486.00,515.00 485.00,515.00 485.00,515.00 Z
           M 484.00,516.00
           C 484.00,516.00 485.00,517.00 485.00,517.00
             485.00,517.00 485.00,516.00 485.00,516.00
             485.00,516.00 484.00,516.00 484.00,516.00 Z
           M 495.00,516.00
           C 495.00,516.00 496.00,517.00 496.00,517.00
             496.00,517.00 496.00,516.00 496.00,516.00
             496.00,516.00 495.00,516.00 495.00,516.00 Z
           M 483.00,517.00
           C 483.00,517.00 484.00,518.00 484.00,518.00
             484.00,518.00 484.00,517.00 484.00,517.00
             484.00,517.00 483.00,517.00 483.00,517.00 Z
           M 493.00,517.00
           C 493.00,517.00 494.00,518.00 494.00,518.00
             494.00,518.00 494.00,517.00 494.00,517.00
             494.00,517.00 493.00,517.00 493.00,517.00 Z
           M 481.00,518.00
           C 481.00,518.00 482.00,519.00 482.00,519.00
             482.00,519.00 482.00,518.00 482.00,518.00
             482.00,518.00 481.00,518.00 481.00,518.00 Z
           M 491.00,518.00
           C 491.00,518.00 492.00,519.00 492.00,519.00
             492.00,519.00 492.00,518.00 492.00,518.00
             492.00,518.00 491.00,518.00 491.00,518.00 Z
           M 480.00,519.00
           C 480.00,519.00 481.00,520.00 481.00,520.00
             481.00,520.00 481.00,519.00 481.00,519.00
             481.00,519.00 480.00,519.00 480.00,519.00 Z
           M 489.00,519.00
           C 489.00,519.00 490.00,520.00 490.00,520.00
             490.00,520.00 490.00,519.00 490.00,519.00
             490.00,519.00 489.00,519.00 489.00,519.00 Z
           M 479.00,520.00
           C 479.00,520.00 480.00,521.00 480.00,521.00
             480.00,521.00 480.00,520.00 480.00,520.00
             480.00,520.00 479.00,520.00 479.00,520.00 Z
           M 487.00,520.00
           C 487.00,520.00 488.00,521.00 488.00,521.00
             488.00,521.00 488.00,520.00 488.00,520.00
             488.00,520.00 487.00,520.00 487.00,520.00 Z
           M 477.00,521.00
           C 477.00,521.00 478.00,522.00 478.00,522.00
             478.00,522.00 478.00,521.00 478.00,521.00
             478.00,521.00 477.00,521.00 477.00,521.00 Z
           M 485.00,521.00
           C 485.00,521.00 486.00,522.00 486.00,522.00
             486.00,522.00 486.00,521.00 486.00,521.00
             486.00,521.00 485.00,521.00 485.00,521.00 Z
           M 478.00,522.00
           C 478.00,522.00 479.00,523.00 479.00,523.00
             479.00,523.00 479.00,522.00 479.00,522.00
             479.00,522.00 478.00,522.00 478.00,522.00 Z
           M 473.00,543.00
           C 471.17,552.59 466.27,552.33 465.54,557.09
             465.54,557.09 465.54,570.00 465.54,570.00
             465.54,570.00 468.13,576.00 468.13,576.00
             468.87,578.34 468.28,587.57 466.98,589.61
             465.90,591.30 463.75,592.36 462.00,593.21
             453.70,597.28 448.64,595.97 440.00,595.32
             433.07,594.80 425.67,598.65 419.00,596.00
             419.00,596.00 423.00,595.00 423.00,595.00
             423.00,595.00 416.00,595.90 416.00,595.90
             416.00,595.90 408.00,595.90 408.00,595.90
             408.00,595.90 411.00,597.00 411.00,597.00
             411.00,597.00 404.00,598.00 404.00,598.00
             406.61,590.72 410.95,591.23 416.99,588.02
             416.99,588.02 424.17,583.56 424.17,583.56
             426.67,582.66 429.48,583.31 431.67,581.40
             435.31,578.23 431.76,572.18 434.00,566.00
             434.00,566.00 435.00,568.00 435.00,568.00
             435.00,568.00 434.00,561.00 434.00,561.00
             434.00,561.00 433.00,564.00 433.00,564.00
             429.70,554.36 423.48,555.39 415.00,556.00
             419.15,551.30 427.77,548.14 434.00,547.18
             434.00,547.18 442.00,547.18 442.00,547.18
             442.00,547.18 439.00,546.00 439.00,546.00
             439.00,546.00 452.00,545.00 452.00,545.00
             452.00,545.00 464.00,545.00 464.00,545.00
             464.00,545.00 459.00,544.00 459.00,544.00
             459.00,544.00 471.00,543.00 471.00,543.00
             471.00,543.00 473.00,543.00 473.00,543.00 Z
           M 471.00,545.00
           C 471.00,545.00 472.00,546.00 472.00,546.00
             472.00,546.00 472.00,545.00 472.00,545.00
             472.00,545.00 471.00,545.00 471.00,545.00 Z
           M 446.00,547.00
           C 446.00,547.00 452.00,546.00 452.00,546.00
             452.00,546.00 446.00,547.00 446.00,547.00 Z
           M 470.00,547.00
           C 470.00,547.00 471.00,548.00 471.00,548.00
             471.00,548.00 471.00,547.00 471.00,547.00
             471.00,547.00 470.00,547.00 470.00,547.00 Z
           M 430.00,549.00
           C 430.00,549.00 431.00,550.00 431.00,550.00
             431.00,550.00 431.00,549.00 431.00,549.00
             431.00,549.00 430.00,549.00 430.00,549.00 Z
           M 249.32,556.34
           C 249.32,556.34 261.00,556.34 261.00,556.34
             261.00,556.34 271.00,556.34 271.00,556.34
             274.75,555.90 276.35,552.88 280.00,552.92
             282.68,552.95 289.79,556.86 296.00,556.37
             296.00,556.37 304.00,554.51 304.00,554.51
             304.00,554.51 314.00,553.68 314.00,553.68
             320.62,552.60 321.81,550.72 330.00,551.04
             333.70,551.18 337.28,552.23 341.00,551.81
             341.00,551.81 351.00,549.21 351.00,549.21
             354.50,548.75 369.70,550.68 373.00,552.00
             373.00,552.00 369.00,553.00 369.00,553.00
             369.00,553.00 381.00,553.00 381.00,553.00
             381.00,553.00 378.00,554.00 378.00,554.00
             378.00,554.00 388.00,552.03 388.00,552.03
             388.00,552.03 399.00,552.03 399.00,552.03
             399.00,552.03 394.00,551.00 394.00,551.00
             394.00,551.00 409.00,551.00 409.00,551.00
             409.00,551.00 404.00,550.00 404.00,550.00
             404.00,550.00 410.00,550.00 410.00,550.00
             405.77,562.28 394.14,557.84 388.00,558.85
             382.93,559.69 382.09,563.56 375.00,564.70
             366.98,565.99 362.87,563.78 356.00,563.17
             352.30,562.85 348.67,563.70 345.00,564.00
             347.84,568.59 351.30,568.25 354.57,572.18
             357.50,575.70 357.00,579.73 357.00,584.00
             359.77,584.14 362.41,584.19 364.79,585.85
             368.72,588.61 374.97,601.13 376.00,606.00
             378.89,602.68 379.49,602.42 380.00,598.00
             380.00,598.00 385.00,596.00 385.00,596.00
             385.00,596.00 397.00,600.90 397.00,600.90
             397.00,600.90 409.00,609.83 409.00,609.83
             409.00,609.83 425.00,612.00 425.00,612.00
             425.00,612.00 422.00,606.00 422.00,606.00
             424.69,606.84 430.98,608.48 433.00,609.74
             436.34,611.82 444.51,620.10 454.00,625.20
             461.01,628.98 462.86,624.42 469.00,632.00
             469.00,632.00 0.00,632.00 0.00,632.00
             0.00,632.00 1.00,605.00 1.00,605.00
             1.00,605.00 0.00,566.00 0.00,566.00
             0.00,566.00 4.00,567.00 4.00,567.00
             4.00,567.00 2.00,569.00 2.00,569.00
             2.00,569.00 34.00,563.08 34.00,563.08
             34.00,563.08 49.00,563.08 49.00,563.08
             49.00,563.08 43.00,562.00 43.00,562.00
             59.01,562.00 58.43,558.74 68.00,558.04
             76.01,557.54 85.21,560.78 95.00,558.04
             95.00,558.04 76.00,557.08 76.00,557.08
             76.00,557.08 101.28,557.08 101.28,557.08
             101.28,557.08 117.00,556.34 117.00,556.34
             117.00,556.34 131.00,560.00 131.00,560.00
             129.07,569.65 131.78,570.78 140.00,576.33
             155.79,586.99 164.00,585.82 172.00,590.00
             172.00,590.00 170.00,591.00 170.00,591.00
             181.26,589.08 186.64,594.59 196.00,593.81
             200.24,593.46 202.72,591.58 207.00,593.00
             207.00,593.00 203.00,594.00 203.00,594.00
             203.00,594.00 213.79,591.27 213.79,591.27
             213.79,591.27 223.00,583.00 223.00,583.00
             223.00,583.00 223.00,581.00 223.00,581.00
             223.00,581.00 220.00,579.00 220.00,579.00
             228.30,579.75 228.90,582.21 238.00,580.00
             238.00,580.00 234.00,578.00 234.00,578.00
             238.95,571.89 240.56,573.82 247.00,571.44
             249.94,570.36 253.35,567.94 256.00,567.51
             258.85,567.04 262.63,568.64 266.00,568.95
             266.00,568.95 284.00,568.95 284.00,568.95
             284.00,568.95 284.00,564.00 284.00,564.00
             284.00,564.00 277.00,564.00 277.00,564.00
             277.00,564.00 282.00,563.00 282.00,563.00
             276.20,563.27 273.48,564.79 268.00,562.00
             268.00,562.00 270.00,561.00 270.00,561.00
             270.00,561.00 250.00,563.00 250.00,563.00
             250.00,563.00 255.00,564.00 255.00,564.00
             245.74,563.25 246.85,557.49 249.32,556.34 Z
           M 468.00,550.00
           C 468.00,550.00 469.00,551.00 469.00,551.00
             469.00,551.00 469.00,550.00 469.00,550.00
             469.00,550.00 468.00,550.00 468.00,550.00 Z
           M 347.00,551.00
           C 347.00,551.00 348.00,552.00 348.00,552.00
             348.00,552.00 348.00,551.00 348.00,551.00
             348.00,551.00 347.00,551.00 347.00,551.00 Z
           M 424.00,551.00
           C 424.00,551.00 425.00,552.00 425.00,552.00
             425.00,552.00 425.00,551.00 425.00,551.00
             425.00,551.00 424.00,551.00 424.00,551.00 Z
           M 467.00,551.00
           C 467.00,551.00 468.00,552.00 468.00,552.00
             468.00,552.00 468.00,551.00 468.00,551.00
             468.00,551.00 467.00,551.00 467.00,551.00 Z
           M 323.00,553.00
           C 323.00,553.00 328.00,552.00 328.00,552.00
             328.00,552.00 323.00,553.00 323.00,553.00 Z
           M 344.00,552.00
           C 344.00,552.00 345.00,553.00 345.00,553.00
             345.00,553.00 345.00,552.00 345.00,552.00
             345.00,552.00 344.00,552.00 344.00,552.00 Z
           M 419.00,554.00
           C 419.00,554.00 423.00,552.00 423.00,552.00
             423.00,552.00 419.00,554.00 419.00,554.00 Z
           M 465.00,552.00
           C 465.00,552.00 466.00,553.00 466.00,553.00
             466.00,553.00 466.00,552.00 466.00,552.00
             466.00,552.00 465.00,552.00 465.00,552.00 Z
           M 336.00,554.00
           C 336.00,554.00 342.00,553.00 342.00,553.00
             342.00,553.00 336.00,554.00 336.00,554.00 Z
           M 384.00,554.00
           C 384.00,554.00 389.00,553.00 389.00,553.00
             389.00,553.00 384.00,554.00 384.00,554.00 Z
           M 281.00,554.00
           C 281.00,554.00 282.00,555.00 282.00,555.00
             282.00,555.00 282.00,554.00 282.00,554.00
             282.00,554.00 281.00,554.00 281.00,554.00 Z
           M 406.00,554.00
           C 406.00,554.00 407.00,555.00 407.00,555.00
             407.00,555.00 407.00,554.00 407.00,554.00
             407.00,554.00 406.00,554.00 406.00,554.00 Z
           M 404.00,555.00
           C 404.00,555.00 405.00,556.00 405.00,556.00
             405.00,556.00 405.00,555.00 405.00,555.00
             405.00,555.00 404.00,555.00 404.00,555.00 Z
           M 429.00,555.00
           C 429.00,555.00 430.00,556.00 430.00,556.00
             430.00,556.00 430.00,555.00 430.00,555.00
             430.00,555.00 429.00,555.00 429.00,555.00 Z
           M 275.00,556.00
           C 275.00,556.00 276.00,557.00 276.00,557.00
             276.00,557.00 276.00,556.00 276.00,556.00
             276.00,556.00 275.00,556.00 275.00,556.00 Z
           M 430.00,556.00
           C 430.00,556.00 431.00,557.00 431.00,557.00
             431.00,557.00 431.00,556.00 431.00,556.00
             431.00,556.00 430.00,556.00 430.00,556.00 Z
           M 259.00,558.00
           C 259.00,558.00 266.00,557.00 266.00,557.00
             266.00,557.00 259.00,558.00 259.00,558.00 Z
           M 274.00,557.00
           C 274.00,557.00 275.00,558.00 275.00,558.00
             275.00,558.00 275.00,557.00 275.00,557.00
             275.00,557.00 274.00,557.00 274.00,557.00 Z
           M 390.00,558.00
           C 390.00,558.00 400.00,557.00 400.00,557.00
             400.00,557.00 390.00,558.00 390.00,558.00 Z
           M 431.00,557.00
           C 431.00,557.00 432.00,558.00 432.00,558.00
             432.00,558.00 432.00,557.00 432.00,557.00
             432.00,557.00 431.00,557.00 431.00,557.00 Z
           M 107.00,559.00
           C 107.00,559.00 112.00,558.00 112.00,558.00
             112.00,558.00 107.00,559.00 107.00,559.00 Z
           M 383.00,558.00
           C 383.00,558.00 384.00,559.00 384.00,559.00
             384.00,559.00 384.00,558.00 384.00,558.00
             384.00,558.00 383.00,558.00 383.00,558.00 Z
           M 432.00,558.00
           C 432.00,558.00 433.00,559.00 433.00,559.00
             433.00,559.00 433.00,558.00 433.00,558.00
             433.00,558.00 432.00,558.00 432.00,558.00 Z
           M 381.00,559.00
           C 381.00,559.00 382.00,560.00 382.00,560.00
             382.00,560.00 382.00,559.00 382.00,559.00
             382.00,559.00 381.00,559.00 381.00,559.00 Z
           M 433.00,559.00
           C 433.00,559.00 434.00,560.00 434.00,560.00
             434.00,560.00 434.00,559.00 434.00,559.00
             434.00,559.00 433.00,559.00 433.00,559.00 Z
           M 465.00,566.00
           C 465.00,566.00 465.00,560.00 465.00,560.00
             465.00,560.00 465.00,566.00 465.00,566.00 Z
           M 249.00,561.00
           C 249.00,561.00 250.00,562.00 250.00,562.00
             250.00,562.00 250.00,561.00 250.00,561.00
             250.00,561.00 249.00,561.00 249.00,561.00 Z
           M 380.00,561.00
           C 380.00,561.00 381.00,562.00 381.00,562.00
             381.00,562.00 381.00,561.00 381.00,561.00
             381.00,561.00 380.00,561.00 380.00,561.00 Z
           M 284.00,562.00
           C 284.00,562.00 285.00,563.00 285.00,563.00
             285.00,563.00 285.00,562.00 285.00,562.00
             285.00,562.00 284.00,562.00 284.00,562.00 Z
           M 344.00,563.00
           C 344.00,563.00 349.00,562.00 349.00,562.00
             349.00,562.00 344.00,563.00 344.00,563.00 Z
           M 378.00,562.00
           C 378.00,562.00 379.00,563.00 379.00,563.00
             379.00,563.00 379.00,562.00 379.00,562.00
             379.00,562.00 378.00,562.00 378.00,562.00 Z
           M 128.00,563.00
           C 128.00,563.00 129.00,564.00 129.00,564.00
             129.00,564.00 129.00,563.00 129.00,563.00
             129.00,563.00 128.00,563.00 128.00,563.00 Z
           M 364.00,564.00
           C 364.00,564.00 376.00,563.00 376.00,563.00
             376.00,563.00 364.00,564.00 364.00,564.00 Z
           M 1.00,567.00
           C 1.00,567.00 2.00,568.00 2.00,568.00
             2.00,568.00 2.00,567.00 2.00,567.00
             2.00,567.00 1.00,567.00 1.00,567.00 Z
           M 128.00,568.00
           C 128.00,568.00 129.00,569.00 129.00,569.00
             129.00,569.00 129.00,568.00 129.00,568.00
             129.00,568.00 128.00,568.00 128.00,568.00 Z
           M 346.00,568.00
           C 346.00,568.00 347.00,573.00 347.00,573.00
             347.00,573.00 348.00,568.00 348.00,568.00
             348.00,568.00 346.00,568.00 346.00,568.00 Z
           M 253.00,569.00
           C 253.00,569.00 254.00,570.00 254.00,570.00
             254.00,570.00 254.00,569.00 254.00,569.00
             254.00,569.00 253.00,569.00 253.00,569.00 Z
           M 252.00,570.00
           C 252.00,570.00 253.00,571.00 253.00,571.00
             253.00,571.00 253.00,570.00 253.00,570.00
             253.00,570.00 252.00,570.00 252.00,570.00 Z
           M 350.00,570.00
           C 350.00,570.00 351.00,571.00 351.00,571.00
             351.00,571.00 351.00,570.00 351.00,570.00
             351.00,570.00 350.00,570.00 350.00,570.00 Z
           M 131.00,571.00
           C 131.00,571.00 132.00,572.00 132.00,572.00
             132.00,572.00 132.00,571.00 132.00,571.00
             132.00,571.00 131.00,571.00 131.00,571.00 Z
           M 351.00,571.00
           C 351.00,571.00 352.00,572.00 352.00,572.00
             352.00,572.00 352.00,571.00 352.00,571.00
             352.00,571.00 351.00,571.00 351.00,571.00 Z
           M 132.00,572.00
           C 132.00,572.00 133.00,573.00 133.00,573.00
             133.00,573.00 133.00,572.00 133.00,572.00
             133.00,572.00 132.00,572.00 132.00,572.00 Z
           M 464.00,572.00
           C 464.00,572.00 465.00,573.00 465.00,573.00
             465.00,573.00 465.00,572.00 465.00,572.00
             465.00,572.00 464.00,572.00 464.00,572.00 Z
           M 133.00,573.00
           C 133.00,573.00 134.00,574.00 134.00,574.00
             134.00,574.00 134.00,573.00 134.00,573.00
             134.00,573.00 133.00,573.00 133.00,573.00 Z
           M 134.00,574.00
           C 134.00,574.00 135.00,575.00 135.00,575.00
             135.00,575.00 135.00,574.00 135.00,574.00
             135.00,574.00 134.00,574.00 134.00,574.00 Z
           M 354.00,574.00
           C 354.00,574.00 355.00,575.00 355.00,575.00
             355.00,575.00 355.00,574.00 355.00,574.00
             355.00,574.00 354.00,574.00 354.00,574.00 Z
           M 465.00,574.00
           C 465.00,574.00 466.00,575.00 466.00,575.00
             466.00,575.00 466.00,574.00 466.00,574.00
             466.00,574.00 465.00,574.00 465.00,574.00 Z
           M 237.00,575.00
           C 237.00,575.00 238.00,576.00 238.00,576.00
             238.00,576.00 238.00,575.00 238.00,575.00
             238.00,575.00 237.00,575.00 237.00,575.00 Z
           M 466.00,575.00
           C 466.00,575.00 467.00,576.00 467.00,576.00
             467.00,576.00 467.00,575.00 467.00,575.00
             467.00,575.00 466.00,575.00 466.00,575.00 Z
           M 137.00,576.00
           C 137.00,576.00 138.00,577.00 138.00,577.00
             138.00,577.00 138.00,576.00 138.00,576.00
             138.00,576.00 137.00,576.00 137.00,576.00 Z
           M 239.00,579.00
           C 239.00,579.00 242.00,576.00 242.00,576.00
             242.00,576.00 239.00,579.00 239.00,579.00 Z
           M 138.00,577.00
           C 138.00,577.00 139.00,578.00 139.00,578.00
             139.00,578.00 139.00,577.00 139.00,577.00
             139.00,577.00 138.00,577.00 138.00,577.00 Z
           M 140.00,578.00
           C 140.00,578.00 141.00,579.00 141.00,579.00
             141.00,579.00 141.00,578.00 141.00,578.00
             141.00,578.00 140.00,578.00 140.00,578.00 Z
           M 241.00,579.00
           C 241.00,579.00 242.00,580.00 242.00,580.00
             242.00,580.00 242.00,579.00 242.00,579.00
             242.00,579.00 241.00,579.00 241.00,579.00 Z
           M 143.00,580.00
           C 143.00,580.00 144.00,581.00 144.00,581.00
             144.00,581.00 144.00,580.00 144.00,580.00
             144.00,580.00 143.00,580.00 143.00,580.00 Z
           M 239.00,580.00
           C 239.00,580.00 240.00,581.00 240.00,581.00
             240.00,581.00 240.00,580.00 240.00,580.00
             240.00,580.00 239.00,580.00 239.00,580.00 Z
           M 145.00,581.00
           C 145.00,581.00 146.00,582.00 146.00,582.00
             146.00,582.00 146.00,581.00 146.00,581.00
             146.00,581.00 145.00,581.00 145.00,581.00 Z
           M 225.00,581.00
           C 225.00,581.00 226.00,582.00 226.00,582.00
             226.00,582.00 226.00,581.00 226.00,581.00
             226.00,581.00 225.00,581.00 225.00,581.00 Z
           M 237.00,581.00
           C 237.00,581.00 238.00,582.00 238.00,582.00
             238.00,582.00 238.00,581.00 238.00,581.00
             238.00,581.00 237.00,581.00 237.00,581.00 Z
           M 434.00,581.00
           C 434.00,581.00 435.00,582.00 435.00,582.00
             435.00,582.00 435.00,581.00 435.00,581.00
             435.00,581.00 434.00,581.00 434.00,581.00 Z
           M 467.00,588.00
           C 467.00,588.00 467.00,581.00 467.00,581.00
             467.00,581.00 467.00,588.00 467.00,588.00 Z
           M 147.00,582.00
           C 147.00,582.00 148.00,583.00 148.00,583.00
             148.00,583.00 148.00,582.00 148.00,582.00
             148.00,582.00 147.00,582.00 147.00,582.00 Z
           M 224.00,582.00
           C 224.00,582.00 225.00,583.00 225.00,583.00
             225.00,583.00 225.00,582.00 225.00,582.00
             225.00,582.00 224.00,582.00 224.00,582.00 Z
           M 231.00,583.00
           C 231.00,583.00 236.00,582.00 236.00,582.00
             236.00,582.00 231.00,583.00 231.00,583.00 Z
           M 149.00,583.00
           C 149.00,583.00 150.00,584.00 150.00,584.00
             150.00,584.00 150.00,583.00 150.00,583.00
             150.00,583.00 149.00,583.00 149.00,583.00 Z
           M 432.00,583.00
           C 432.00,583.00 433.00,584.00 433.00,584.00
             433.00,584.00 433.00,583.00 433.00,583.00
             433.00,583.00 432.00,583.00 432.00,583.00 Z
           M 423.00,585.00
           C 423.00,585.00 424.00,586.00 424.00,586.00
             424.00,586.00 424.00,585.00 424.00,585.00
             424.00,585.00 423.00,585.00 423.00,585.00 Z
           M 219.00,586.00
           C 219.00,586.00 220.00,587.00 220.00,587.00
             220.00,587.00 220.00,586.00 220.00,586.00
             220.00,586.00 219.00,586.00 219.00,586.00 Z
           M 363.00,586.00
           C 363.00,586.00 364.00,587.00 364.00,587.00
             364.00,587.00 364.00,586.00 364.00,586.00
             364.00,586.00 363.00,586.00 363.00,586.00 Z
           M 422.00,586.00
           C 422.00,586.00 423.00,587.00 423.00,587.00
             423.00,587.00 423.00,586.00 423.00,586.00
             423.00,586.00 422.00,586.00 422.00,586.00 Z
           M 364.00,587.00
           C 364.00,587.00 365.00,588.00 365.00,588.00
             365.00,588.00 365.00,587.00 365.00,587.00
             365.00,587.00 364.00,587.00 364.00,587.00 Z
           M 421.00,587.00
           C 421.00,587.00 422.00,588.00 422.00,588.00
             422.00,588.00 422.00,587.00 422.00,587.00
             422.00,587.00 421.00,587.00 421.00,587.00 Z
           M 365.00,588.00
           C 365.00,588.00 366.00,589.00 366.00,589.00
             366.00,589.00 366.00,588.00 366.00,588.00
             366.00,588.00 365.00,588.00 365.00,588.00 Z
           M 419.00,588.00
           C 419.00,588.00 420.00,589.00 420.00,589.00
             420.00,589.00 420.00,588.00 420.00,588.00
             420.00,588.00 419.00,588.00 419.00,588.00 Z
           M 417.00,589.00
           C 417.00,589.00 418.00,590.00 418.00,590.00
             418.00,590.00 418.00,589.00 418.00,589.00
             418.00,589.00 417.00,589.00 417.00,589.00 Z
           M 466.00,589.00
           C 466.00,589.00 467.00,590.00 467.00,590.00
             467.00,590.00 467.00,589.00 467.00,589.00
             467.00,589.00 466.00,589.00 466.00,589.00 Z
           M 464.00,590.00
           C 464.00,590.00 465.00,591.00 465.00,591.00
             465.00,591.00 465.00,590.00 465.00,590.00
             465.00,590.00 464.00,590.00 464.00,590.00 Z
           M 216.00,591.00
           C 216.00,591.00 217.00,592.00 217.00,592.00
             217.00,592.00 217.00,591.00 217.00,591.00
             217.00,591.00 216.00,591.00 216.00,591.00 Z
           M 412.00,591.00
           C 412.00,591.00 413.00,592.00 413.00,592.00
             413.00,592.00 413.00,591.00 413.00,591.00
             413.00,591.00 412.00,591.00 412.00,591.00 Z
           M 462.00,591.00
           C 462.00,591.00 463.00,592.00 463.00,592.00
             463.00,592.00 463.00,591.00 463.00,591.00
             463.00,591.00 462.00,591.00 462.00,591.00 Z
           M 215.00,592.00
           C 215.00,592.00 216.00,593.00 216.00,593.00
             216.00,593.00 216.00,592.00 216.00,592.00
             216.00,592.00 215.00,592.00 215.00,592.00 Z
           M 410.00,592.00
           C 410.00,592.00 411.00,593.00 411.00,593.00
             411.00,593.00 411.00,592.00 411.00,592.00
             411.00,592.00 410.00,592.00 410.00,592.00 Z
           M 460.00,592.00
           C 460.00,592.00 461.00,593.00 461.00,593.00
             461.00,593.00 461.00,592.00 461.00,592.00
             461.00,592.00 460.00,592.00 460.00,592.00 Z
           M 408.00,593.00
           C 408.00,593.00 409.00,594.00 409.00,594.00
             409.00,594.00 409.00,593.00 409.00,593.00
             409.00,593.00 408.00,593.00 408.00,593.00 Z
           M 458.00,593.00
           C 458.00,593.00 459.00,594.00 459.00,594.00
             459.00,594.00 459.00,593.00 459.00,593.00
             459.00,593.00 458.00,593.00 458.00,593.00 Z
           M 407.00,594.00
           C 407.00,594.00 408.00,595.00 408.00,595.00
             408.00,595.00 408.00,594.00 408.00,594.00
             408.00,594.00 407.00,594.00 407.00,594.00 Z
           M 449.00,595.00
           C 449.00,595.00 456.00,594.00 456.00,594.00
             456.00,594.00 449.00,595.00 449.00,595.00 Z
           M 192.00,596.00
           C 192.00,596.00 198.00,595.00 198.00,595.00
             198.00,595.00 192.00,596.00 192.00,596.00 Z
           M 369.00,595.00
           C 369.00,595.00 370.00,596.00 370.00,596.00
             370.00,596.00 370.00,595.00 370.00,595.00
             370.00,595.00 369.00,595.00 369.00,595.00 Z
           M 406.00,595.00
           C 406.00,595.00 407.00,596.00 407.00,596.00
             407.00,596.00 407.00,595.00 407.00,595.00
             407.00,595.00 406.00,595.00 406.00,595.00 Z
           M 370.00,596.00
           C 370.00,596.00 371.00,597.00 371.00,597.00
             371.00,597.00 371.00,596.00 371.00,596.00
             371.00,596.00 370.00,596.00 370.00,596.00 Z
           M 383.00,597.00
           C 383.00,597.00 384.00,598.00 384.00,598.00
             384.00,598.00 384.00,597.00 384.00,597.00
             384.00,597.00 383.00,597.00 383.00,597.00 Z
           M 441.00,597.00
           C 441.00,597.00 436.00,596.00 436.00,596.00
             436.00,596.00 441.00,597.00 441.00,597.00 Z
           M 372.00,599.00
           C 372.00,599.00 373.00,600.00 373.00,600.00
             373.00,600.00 373.00,599.00 373.00,599.00
             373.00,599.00 372.00,599.00 372.00,599.00 Z
           M 386.00,600.00
           C 386.00,600.00 391.00,599.00 391.00,599.00
             391.00,599.00 386.00,600.00 386.00,600.00 Z
           M 395.00,601.00
           C 395.00,601.00 396.00,602.00 396.00,602.00
             396.00,602.00 396.00,601.00 396.00,601.00
             396.00,601.00 395.00,601.00 395.00,601.00 Z
           M 382.00,602.00
           C 382.00,602.00 383.00,603.00 383.00,603.00
             383.00,603.00 383.00,602.00 383.00,602.00
             383.00,602.00 382.00,602.00 382.00,602.00 Z
           M 381.00,603.00
           C 381.00,603.00 382.00,604.00 382.00,604.00
             382.00,604.00 382.00,603.00 382.00,603.00
             382.00,603.00 381.00,603.00 381.00,603.00 Z
           M 398.00,603.00
           C 398.00,603.00 399.00,604.00 399.00,604.00
             399.00,604.00 399.00,603.00 399.00,603.00
             399.00,603.00 398.00,603.00 398.00,603.00 Z
           M 380.00,604.00
           C 380.00,604.00 381.00,605.00 381.00,605.00
             381.00,605.00 381.00,604.00 381.00,604.00
             381.00,604.00 380.00,604.00 380.00,604.00 Z
           M 399.00,604.00
           C 399.00,604.00 400.00,605.00 400.00,605.00
             400.00,605.00 400.00,604.00 400.00,604.00
             400.00,604.00 399.00,604.00 399.00,604.00 Z
           M 379.00,605.00
           C 379.00,605.00 380.00,606.00 380.00,606.00
             380.00,606.00 380.00,605.00 380.00,605.00
             380.00,605.00 379.00,605.00 379.00,605.00 Z
           M 401.00,605.00
           C 401.00,605.00 402.00,606.00 402.00,606.00
             402.00,606.00 402.00,605.00 402.00,605.00
             402.00,605.00 401.00,605.00 401.00,605.00 Z
           M 378.00,606.00
           C 378.00,606.00 379.00,607.00 379.00,607.00
             379.00,607.00 379.00,606.00 379.00,606.00
             379.00,606.00 378.00,606.00 378.00,606.00 Z
           M 402.00,606.00
           C 402.00,606.00 403.00,607.00 403.00,607.00
             403.00,607.00 403.00,606.00 403.00,606.00
             403.00,606.00 402.00,606.00 402.00,606.00 Z
           M 377.00,607.00
           C 377.00,607.00 378.00,608.00 378.00,608.00
             378.00,608.00 378.00,607.00 378.00,607.00
             378.00,607.00 377.00,607.00 377.00,607.00 Z
           M 403.00,607.00
           C 403.00,607.00 404.00,608.00 404.00,608.00
             404.00,608.00 404.00,607.00 404.00,607.00
             404.00,607.00 403.00,607.00 403.00,607.00 Z
           M 404.00,608.00
           C 404.00,608.00 405.00,609.00 405.00,609.00
             405.00,609.00 405.00,608.00 405.00,608.00
             405.00,608.00 404.00,608.00 404.00,608.00 Z
           M 424.00,608.00
           C 424.00,608.00 425.00,609.00 425.00,609.00
             425.00,609.00 425.00,608.00 425.00,608.00
             425.00,608.00 424.00,608.00 424.00,608.00 Z
           M 405.00,609.00
           C 405.00,609.00 406.00,610.00 406.00,610.00
             406.00,610.00 406.00,609.00 406.00,609.00
             406.00,609.00 405.00,609.00 405.00,609.00 Z
           M 406.00,610.00
           C 406.00,610.00 407.00,611.00 407.00,611.00
             407.00,611.00 407.00,610.00 407.00,610.00
             407.00,610.00 406.00,610.00 406.00,610.00 Z
           M 425.00,610.00
           C 425.00,610.00 426.00,611.00 426.00,611.00
             426.00,611.00 426.00,610.00 426.00,610.00
             426.00,610.00 425.00,610.00 425.00,610.00 Z
           M 432.00,610.00
           C 432.00,610.00 433.00,611.00 433.00,611.00
             433.00,611.00 433.00,610.00 433.00,610.00
             433.00,610.00 432.00,610.00 432.00,610.00 Z
           M 433.00,611.00
           C 433.00,611.00 434.00,612.00 434.00,612.00
             434.00,612.00 434.00,611.00 434.00,611.00
             434.00,611.00 433.00,611.00 433.00,611.00 Z
           M 434.00,612.00
           C 434.00,612.00 435.00,613.00 435.00,613.00
             435.00,613.00 435.00,612.00 435.00,612.00
             435.00,612.00 434.00,612.00 434.00,612.00 Z
           M 435.00,613.00
           C 435.00,613.00 436.00,614.00 436.00,614.00
             436.00,614.00 436.00,613.00 436.00,613.00
             436.00,613.00 435.00,613.00 435.00,613.00 Z
           M 436.00,614.00
           C 436.00,614.00 437.00,615.00 437.00,615.00
             437.00,615.00 437.00,614.00 437.00,614.00
             437.00,614.00 436.00,614.00 436.00,614.00 Z
           M 437.00,615.00
           C 437.00,615.00 438.00,616.00 438.00,616.00
             438.00,616.00 438.00,615.00 438.00,615.00
             438.00,615.00 437.00,615.00 437.00,615.00 Z
           M 438.00,616.00
           C 438.00,616.00 439.00,617.00 439.00,617.00
             439.00,617.00 439.00,616.00 439.00,616.00
             439.00,616.00 438.00,616.00 438.00,616.00 Z
           M 439.00,617.00
           C 439.00,617.00 440.00,618.00 440.00,618.00
             440.00,618.00 440.00,617.00 440.00,617.00
             440.00,617.00 439.00,617.00 439.00,617.00 Z
           M 442.00,619.00
           C 442.00,619.00 443.00,620.00 443.00,620.00
             443.00,620.00 443.00,619.00 443.00,619.00
             443.00,619.00 442.00,619.00 442.00,619.00 Z
           M 445.00,621.00
           C 445.00,621.00 446.00,622.00 446.00,622.00
             446.00,622.00 446.00,621.00 446.00,621.00
             446.00,621.00 445.00,621.00 445.00,621.00 Z
           M 446.00,622.00
           C 446.00,622.00 447.00,623.00 447.00,623.00
             447.00,623.00 447.00,622.00 447.00,622.00
             447.00,622.00 446.00,622.00 446.00,622.00 Z
           M 448.00,623.00
           C 448.00,623.00 449.00,624.00 449.00,624.00
             449.00,624.00 449.00,623.00 449.00,623.00
             449.00,623.00 448.00,623.00 448.00,623.00 Z
           M 449.00,624.00
           C 449.00,624.00 450.00,625.00 450.00,625.00
             450.00,625.00 450.00,624.00 450.00,624.00
             450.00,624.00 449.00,624.00 449.00,624.00 Z
           M 451.00,625.00
           C 451.00,625.00 452.00,626.00 452.00,626.00
             452.00,626.00 452.00,625.00 452.00,625.00
             452.00,625.00 451.00,625.00 451.00,625.00 Z
           M 452.00,626.00
           C 452.00,626.00 453.00,627.00 453.00,627.00
             453.00,627.00 453.00,626.00 453.00,626.00
             453.00,626.00 452.00,626.00 452.00,626.00 Z
           M 454.00,627.00
           C 454.00,627.00 455.00,628.00 455.00,628.00
             455.00,628.00 455.00,627.00 455.00,627.00
             455.00,627.00 454.00,627.00 454.00,627.00 Z
           M 456.00,629.00
           C 456.00,629.00 464.00,628.00 464.00,628.00
             464.00,628.00 456.00,629.00 456.00,629.00 Z
           M 465.00,629.00
           C 465.00,629.00 466.00,630.00 466.00,630.00
             466.00,630.00 466.00,629.00 466.00,629.00
             466.00,629.00 465.00,629.00 465.00,629.00 Z
           M 466.00,630.00
           C 466.00,630.00 467.00,631.00 467.00,631.00
             467.00,631.00 467.00,630.00 467.00,630.00
             467.00,630.00 466.00,630.00 466.00,630.00 Z" />
</svg>
