<?xml version="1.0" encoding="UTF-8" standalone="no"?>
<!DOCTYPE svg PUBLIC "-//W3C//DTD SVG 20010904//EN"
              "http://www.w3.org/TR/2001/REC-SVG-20010904/DTD/svg10.dtd">

<svg xmlns="http://www.w3.org/2000/svg"
     width="6.65718in" height="7.02181in"
     viewBox="0 0 639 674">
    <path id="Barbados"
        fill="none" stroke="black" stroke-width="1"
        d="M 607.58,419.80
           C 604.20,423.73 598.28,424.83 595.31,419.80
             594.25,417.97 593.48,411.33 593.30,409.00
             593.13,406.72 593.42,402.78 596.85,403.74
             599.17,404.40 600.43,407.70 602.39,409.79
             604.51,412.06 607.34,413.46 610.00,415.00
             609.30,417.05 609.07,418.08 607.58,419.80 Z" />
    <path id="Isla de Mona"
        fill="none" stroke="black" stroke-width="1"
        d="M 11.00,66.00
           C 7.54,67.40 6.46,67.40 3.00,66.00
             3.00,66.00 3.00,64.00 3.00,64.00
             7.26,62.06 9.04,61.15 11.00,66.00 Z" />
    <path id="Puerto Rico"
        fill="none" stroke="black" stroke-width="1"
        d="M 77.00,36.86
           C 77.00,36.86 94.00,36.86 94.00,36.86
             94.00,36.86 110.00,37.60 110.00,37.60
             110.00,37.60 128.46,37.60 128.46,37.60
             129.76,38.13 129.53,38.52 130.00,39.23
             134.34,37.81 146.57,38.08 150.96,39.23
             157.43,41.47 162.11,45.23 169.00,44.00
             169.00,44.00 170.00,57.00 170.00,57.00
             170.00,57.00 168.00,55.00 168.00,55.00
             166.64,59.61 164.50,57.09 160.27,61.27
             157.76,63.75 156.72,67.44 153.28,70.29
             148.09,74.58 142.14,73.77 136.00,75.27
             132.12,76.22 127.94,78.04 124.00,77.00
             124.00,77.00 126.00,76.00 126.00,76.00
             126.00,76.00 121.00,77.00 121.00,77.00
             117.19,73.78 117.19,75.81 113.00,75.12
             113.00,75.12 108.00,74.07 108.00,74.07
             108.00,74.07 101.00,74.07 101.00,74.07
             96.23,74.52 94.29,73.30 88.00,74.07
             88.00,74.07 87.00,72.00 87.00,72.00
             87.00,72.00 86.00,72.00 86.00,72.00
             82.88,77.20 79.06,75.53 73.00,77.00
             73.00,77.00 72.00,74.00 72.00,74.00
             72.00,74.00 69.00,76.00 69.00,76.00
             69.00,76.00 70.00,74.00 70.00,74.00
             70.00,74.00 65.00,74.00 65.00,74.00
             63.87,76.38 63.82,77.60 61.00,77.00
             61.00,77.00 62.00,77.00 62.00,77.00
             62.00,77.00 63.00,75.00 63.00,75.00
             63.00,75.00 55.00,76.00 55.00,76.00
             55.00,76.00 57.57,55.04 57.57,55.04
             57.57,55.04 51.00,45.00 51.00,45.00
             51.00,45.00 59.00,42.00 59.00,42.00
             59.00,42.00 58.00,36.86 58.00,36.86
             69.44,33.44 66.35,36.48 77.00,36.86 Z" />
    <path id="Gustavia"
        fill="none" stroke="black" stroke-width="1"
        d="M 126.00,75.00
           C 126.00,75.00 127.00,76.00 127.00,76.00
             127.00,76.00 127.00,75.00 127.00,75.00
             127.00,75.00 126.00,75.00 126.00,75.00 Z" />
    <path id="Vieques"
        fill="none" stroke="black" stroke-width="1"
        d="
           M 194.00,61.00
           C 189.24,64.01 187.35,63.19 182.00,63.00
             180.98,66.32 176.03,65.66 173.00,66.00
             173.00,66.00 172.00,62.00 172.00,62.00
             181.98,60.46 183.43,57.14 194.00,61.00 Z" />
    <path id="Isla de Culebra"
        fill="none" stroke="black" stroke-width="1"
        d="
           M 196.00,47.00
           C 196.00,47.00 196.00,50.00 196.00,50.00
             196.00,50.00 192.00,52.00 192.00,52.00
             192.00,52.00 189.00,47.00 189.00,47.00
             189.00,47.00 196.00,47.00 196.00,47.00 Z" />
    <path id="Charlotte Amalie"
        fill="none" stroke="black" stroke-width="1"
        d="
           M 224.00,45.00
           C 224.00,45.00 225.00,49.00 225.00,49.00
             218.58,50.73 215.98,49.14 210.00,47.00
             215.98,42.75 217.71,45.15 224.00,45.00 Z" />
    <path id="British Virgin Islands"
        fill="none" stroke="black" stroke-width="1"
        d="
           M 249.00,37.00
           C 249.00,37.00 248.00,41.00 248.00,41.00
             248.00,41.00 235.00,44.00 235.00,44.00
             235.00,44.00 237.00,49.00 237.00,49.00
             237.00,49.00 235.00,50.00 235.00,50.00
             235.00,50.00 227.00,49.00 227.00,49.00
             227.00,49.00 227.00,47.00 227.00,47.00
             227.00,47.00 231.00,43.00 231.00,43.00
             231.00,43.00 245.00,39.00 245.00,39.00
             245.00,39.00 246.00,36.00 246.00,36.00
             246.00,36.00 249.00,37.00 249.00,37.00 Z" />
    <path id="US Virgin Islands"
        fill="none" stroke="black" stroke-width="1"
        d="
           M 221.73,88.64
           C 224.99,85.19 231.21,87.73 235.00,88.05
             235.00,88.05 244.00,88.05 244.00,88.05
             240.83,92.62 225.62,94.94 220.00,95.00
             220.25,93.14 220.41,90.04 221.73,88.64 Z" />
    <path id="Anguilla"
        fill="none" stroke="black" stroke-width="1"
        d="
           M 361.00,51.00
           C 355.48,55.15 349.78,61.20 342.00,59.00
             347.27,56.35 355.46,49.79 361.00,51.00 Z" />
    <path id="St Martin"
        fill="none" stroke="black" stroke-width="1"
        d="
           M 354.00,62.00
           C 354.00,62.00 354.00,70.00 354.00,70.00
             349.56,70.69 346.49,69.89 344.00,66.00
             344.00,66.00 354.00,62.00 354.00,62.00 Z" />
    <path id="Gustavia"
        fill="none" stroke="black" stroke-width="1"
        d="
           M 368.00,80.00
           C 368.00,80.00 364.00,76.00 364.00,76.00
             366.96,77.19 366.92,76.99 368.00,80.00 Z" />
    <path id="Saint Kitts"
        fill="none" stroke="black" stroke-width="1"
        d="M 377.35,119.93
           C 379.94,122.96 380.75,123.06 382.00,127.00
             382.00,127.00 379.00,128.00 379.00,128.00
             376.50,122.90 375.06,122.85 370.00,121.00
             370.00,121.00 371.00,117.00 371.00,117.00
             371.00,117.00 364.00,117.00 364.00,117.00
             368.92,109.33 373.37,115.25 377.35,119.93 Z" />
    <path id="Nevis"
        fill="none" stroke="black" stroke-width="1"
        d="M 387.00,136.00
           C 387.00,136.00 385.00,136.00 385.00,136.00
             385.00,136.00 385.00,133.00 385.00,133.00
             385.00,133.00 381.00,134.00 381.00,134.00
             382.06,125.11 389.45,127.02 387.00,136.00 Z" />
    <path id="Barbuda"
        fill="none" stroke="black" stroke-width="1"
        d="
           M 439.00,95.00
           C 445.55,94.88 445.24,98.38 446.00,104.00
             446.00,104.00 436.00,102.00 436.00,102.00
             436.00,102.00 434.00,92.00 434.00,92.00
             434.00,92.00 435.00,92.00 435.00,92.00
             435.00,92.00 437.00,90.00 437.00,90.00
             437.00,90.00 439.00,95.00 439.00,95.00 Z" />
    <path id="Antigua"
        fill="none" stroke="black" stroke-width="1"
        d="
           M 446.89,141.38
           C 445.29,142.24 443.80,142.53 442.00,142.57
             439.67,142.63 436.50,142.23 434.91,140.34
             431.61,136.44 434.80,128.57 442.00,131.32
             442.00,131.32 450.00,135.00 450.00,135.00
             450.00,135.00 451.00,137.00 451.00,137.00
             449.71,139.09 449.20,140.15 446.89,141.38 Z" />
    <path id="Montserrat"
        fill="none" stroke="black" stroke-width="1"
        d="
           M 414.00,155.00
           C 414.61,156.61 415.33,158.28 415.60,160.00
             416.63,166.39 411.76,166.14 410.11,162.85
             408.93,160.47 410.25,157.34 411.00,155.00
             411.00,155.00 414.00,155.00 414.00,155.00 Z" />
    <path id="Guadeloupe"
        fill="none" stroke="black" stroke-width="1"
        d="
           M 471.59,187.41
           C 473.21,189.02 475.53,188.91 477.83,190.15
             477.83,190.15 486.00,196.00 486.00,196.00
             469.71,196.15 470.16,203.16 457.00,197.00
             457.00,197.00 456.00,198.00 456.00,198.00
             457.05,201.21 459.19,206.73 458.17,210.00
             456.84,214.27 450.67,219.38 446.53,215.64
             441.86,211.44 441.40,202.85 440.72,197.00
             440.36,193.90 439.74,189.97 443.23,188.28
             446.73,186.58 454.49,191.55 458.00,193.00
             458.00,193.00 462.00,188.00 462.00,188.00
             458.43,182.01 459.47,180.97 464.00,176.00
             471.82,181.11 468.32,184.13 471.59,187.41 Z" />
    <path id="Dominica"
        fill="none" stroke="black" stroke-width="1"
        d="
           M 477.01,245.25
           C 479.86,248.64 481.27,261.94 478.98,265.74
             477.37,268.41 473.75,269.88 471.00,271.00
             471.00,271.00 468.38,260.83 468.38,260.83
             463.67,248.52 461.66,253.34 464.00,239.00
             467.31,239.86 474.84,242.67 477.01,245.25 Z" />
    <path id="Martinique"
        fill="none" stroke="black" stroke-width="1"
        d="
           M 483.53,304.00
           C 482.75,302.11 480.85,299.45 481.44,297.43
             483.27,291.09 495.59,292.90 499.00,302.00
             499.00,302.00 507.00,301.00 507.00,301.00
             507.00,301.00 503.00,305.00 503.00,305.00
             503.00,305.00 506.00,307.00 506.00,307.00
             506.00,307.00 502.00,309.00 502.00,309.00
             502.00,309.00 505.00,308.00 505.00,308.00
             507.35,313.02 515.65,327.85 504.00,327.00
             504.00,327.00 505.00,324.00 505.00,324.00
             505.00,324.00 492.00,324.00 492.00,324.00
             489.49,318.16 490.67,316.37 497.00,317.00
             487.83,310.41 488.48,316.01 483.53,304.00 Z" />
    <path id="Saint Lucia"
        fill="none" stroke="black" stroke-width="1"
        d="
           M 491.87,364.46
           C 491.46,361.92 498.41,351.31 500.46,349.59
             501.85,348.43 502.44,348.49 504.00,348.00
             504.74,352.12 506.44,354.17 506.74,358.99
             507.28,367.67 505.75,369.79 502.00,377.00
             496.68,374.75 491.00,372.60 493.00,366.00
             492.64,365.61 492.07,365.65 491.87,364.46 Z" />
    <path id="Saint Vincent and the Grenadines"
        fill="none" stroke="black" stroke-width="1"
        d="
           M 484.91,417.84
           C 481.21,419.44 477.57,414.20 477.41,411.00
             477.21,407.01 480.94,401.83 484.17,399.88
             492.15,399.96 490.22,415.54 484.91,417.84 Z" />
    <path id="Grenada"
        fill="none" stroke="black" stroke-width="1"
        d="
           M 443.81,490.00
           C 444.22,486.35 448.30,479.99 452.69,481.66
             455.89,482.87 454.29,487.59 453.82,490.00
             452.50,496.75 446.21,500.91 440.00,497.00
             440.00,497.00 443.81,495.00 443.81,495.00
             443.63,493.08 443.29,492.03 443.81,490.00 Z" />
    <path id="Tobago"
        fill="none" stroke="black" stroke-width="1"
        d="
           M 532.00,544.00
           C 532.00,544.00 533.00,548.00 533.00,548.00
             533.00,548.00 531.00,547.00 531.00,547.00
             531.00,547.00 532.00,550.00 532.00,550.00
             532.00,550.00 517.00,557.37 517.00,557.37
             517.00,557.37 510.55,559.04 510.55,559.04
             510.55,559.04 508.00,556.00 508.00,556.00
             514.38,552.74 519.43,544.30 529.00,546.00
             529.00,546.00 532.00,544.00 532.00,544.00 Z" />
    <path id="Trinidad"
        fill="none" stroke="black" stroke-width="1"
        d="
           M 476.00,582.30
           C 476.00,582.30 504.00,580.00 504.00,580.00
             502.78,584.96 500.00,589.35 495.00,591.00
             495.00,591.00 496.37,600.00 496.37,600.00
             496.40,606.21 492.63,608.48 500.00,615.00
             498.29,621.55 497.32,622.07 499.00,629.00
             499.00,629.00 488.00,634.47 488.00,634.47
             488.00,634.47 467.00,635.90 467.00,635.90
             467.00,635.90 460.00,635.18 460.00,635.18
             460.00,635.18 452.00,636.30 452.00,636.30
             452.00,636.30 442.00,635.11 442.00,635.11
             442.00,635.11 431.00,637.00 431.00,637.00
             436.20,627.41 447.08,631.05 452.00,622.00
             456.43,622.35 463.47,623.81 463.51,616.98
             463.53,614.37 461.66,612.03 461.72,609.00
             461.80,605.31 465.22,601.48 460.19,595.34
             455.96,590.18 452.98,594.45 450.00,591.00
             450.00,591.00 443.00,593.00 443.00,593.00
             443.00,593.00 443.96,591.03 443.96,591.03
             443.96,591.03 454.00,586.80 454.00,586.80
             454.00,586.80 463.00,584.00 463.00,584.00
             463.00,584.00 476.00,582.30 476.00,582.30 Z" />
    <path id="South America"
        fill="none" stroke="black" stroke-width="1"
        d="M 317.00,594.11
           C 317.00,594.11 327.00,591.03 327.00,591.03
             327.00,591.03 336.00,591.03 336.00,591.03
             336.00,591.03 345.00,588.61 345.00,588.61
             355.72,587.28 358.00,589.71 362.00,589.57
             367.00,589.41 372.20,585.92 376.00,585.98
             376.00,585.98 408.00,589.92 408.00,589.92
             408.00,589.92 437.00,587.00 437.00,587.00
             433.54,595.51 427.22,595.55 419.00,595.43
             416.50,595.17 413.43,594.69 411.04,595.43
             404.78,597.99 408.20,601.67 398.00,601.68
             398.00,601.68 389.00,601.68 389.00,601.68
             384.55,601.39 382.35,599.36 378.00,599.89
             378.00,599.89 367.00,601.00 367.00,601.00
             367.00,601.00 369.00,611.00 369.00,611.00
             369.00,611.00 369.00,605.00 369.00,605.00
             373.52,606.33 379.74,610.91 380.58,615.91
             381.29,620.22 377.97,618.91 382.00,627.00
             382.00,627.00 382.00,623.00 382.00,623.00
             391.55,624.02 390.11,627.16 394.16,633.74
             395.58,636.04 397.84,637.77 398.88,640.30
             398.88,640.30 401.00,648.00 401.00,648.00
             401.00,648.00 408.00,641.00 408.00,641.00
             403.30,639.01 407.24,637.02 410.00,636.00
             410.00,636.00 411.00,639.00 411.00,639.00
             422.52,636.29 431.18,648.75 435.28,651.23
             437.57,652.62 451.03,653.48 454.00,653.00
             454.00,653.00 450.00,646.00 450.00,646.00
             450.00,646.00 454.00,649.00 454.00,649.00
             462.04,647.62 463.43,652.99 468.37,657.37
             468.37,657.37 485.00,668.55 485.00,668.55
             491.80,671.62 493.40,665.85 500.00,674.00
             500.00,674.00 0.00,674.00 0.00,674.00
             0.00,674.00 0.00,604.00 0.00,604.00
             1.60,604.69 3.69,605.75 5.41,605.92
             7.44,606.11 12.67,604.68 15.01,604.31
             15.01,604.31 37.00,601.09 37.00,601.09
             37.00,601.09 56.00,599.68 56.00,599.68
             68.43,597.50 61.88,596.22 81.00,595.08
             81.00,595.08 97.00,595.08 97.00,595.08
             97.00,595.08 107.00,594.01 107.00,594.01
             107.00,594.01 117.72,594.88 117.72,594.88
             117.72,594.88 122.09,593.45 122.09,593.45
             124.79,592.99 135.37,596.95 139.00,598.00
             139.00,598.00 139.00,600.00 139.00,600.00
             137.81,601.19 136.32,602.08 136.62,604.09
             137.19,607.95 150.34,616.67 154.00,618.69
             165.83,625.22 177.09,627.69 190.00,630.65
             193.84,631.53 205.83,634.77 209.00,634.44
             209.00,634.44 215.00,632.63 215.00,632.63
             221.34,631.00 229.72,636.23 232.00,627.00
             232.00,627.00 234.00,627.00 234.00,627.00
             234.00,627.00 233.00,624.00 233.00,624.00
             237.04,623.71 237.25,623.65 239.00,620.00
             239.00,620.00 235.00,618.00 235.00,618.00
             235.00,618.00 242.00,619.00 242.00,619.00
             242.00,619.00 241.00,621.00 241.00,621.00
             241.00,621.00 246.00,620.00 246.00,620.00
             250.83,621.54 251.56,620.07 256.00,618.00
             256.00,618.00 251.00,616.00 251.00,616.00
             251.00,616.00 257.00,615.00 257.00,615.00
             257.00,615.00 251.00,615.00 251.00,615.00
             253.94,611.11 259.65,611.72 264.00,610.30
             268.92,608.70 269.53,606.04 273.00,605.36
             276.61,604.65 278.53,607.44 283.00,607.39
             283.00,607.39 289.00,607.39 289.00,607.39
             289.00,607.39 297.00,607.39 297.00,607.39
             297.00,607.39 304.00,607.39 304.00,607.39
             304.00,607.39 303.00,601.00 303.00,601.00
             294.45,603.63 289.36,598.72 282.00,599.30
             282.00,599.30 268.10,601.00 268.10,601.00
             263.45,599.93 263.04,595.26 266.00,592.00
             273.90,596.33 274.90,593.55 280.00,593.58
             285.29,593.61 291.34,598.42 297.00,589.00
             302.08,591.86 311.10,594.83 317.00,594.11 Z" />
</svg>